<?xml version="1.0" standalone="no"?>
<!DOCTYPE svg PUBLIC "-//W3C//DTD SVG 20010904//EN"
 "http://www.w3.org/TR/2001/REC-SVG-20010904/DTD/svg10.dtd">
<svg version="1.0" xmlns="http://www.w3.org/2000/svg"
 width="570.000000pt" height="329.000000pt" viewBox="0 0 570.000000 329.000000"
 preserveAspectRatio="xMidYMid meet">
<metadata>
Created by potrace 1.13, written by Peter Selinger 2001-2015
</metadata>
<g transform="translate(0.000000,329.000000) scale(0.100000,-0.100000)"
fill="#D8E6EC" stroke="none">
<path d="M2145 3270 c-49 -10 -286 -55 -525 -100 -239 -44 -443 -83 -454 -86
-15 -5 -17 -13 -13 -44 2 -20 2 -42 -2 -48 -16 -27 -562 -80 -903 -89 l-248
-6 0 -83 0 -82 158 4 c232 7 581 32 797 58 105 13 191 22 192 21 4 -3 4 -1107
0 -1111 -2 -2 -118 12 -258 31 -256 36 -409 57 -684 95 -82 11 -162 22 -177
25 l-28 5 0 -265 0 -265 22 -4 c13 -3 120 -9 238 -15 358 -17 782 -41 838 -47
l52 -5 0 -335 0 -334 -575 0 -575 0 0 -30 0 -30 575 0 575 0 0 -265 0 -265
760 0 760 0 2 262 3 263 935 0 935 0 3 -63 3 -62 249 0 249 0 3 63 3 62 303 3
302 2 0 30 0 30 -305 0 -306 0 3 73 c2 57 6 72 18 71 40 -3 529 -87 558 -96
19 -5 35 -8 38 -6 2 3 10 25 18 50 l13 46 -67 26 c-174 69 -353 235 -474 439
-51 86 -106 202 -106 223 0 12 -46 14 -250 14 -169 0 -250 -3 -250 -11 0 -32
-242 -104 -389 -115 l-90 -7 -68 49 c-252 180 -605 558 -974 1044 -106 140
-330 453 -348 487 -6 12 -11 67 -11 126 0 104 0 104 -27 116 -163 76 -385 171
-395 170 -7 0 -53 -9 -103 -19z m17 -597 l48 -47 0 -537 0 -536 -89 12 c-49 7
-94 16 -100 19 -8 5 -11 151 -11 493 l0 486 46 79 c25 43 49 78 52 78 4 0 28
-21 54 -47z m608 -113 c256 -357 551 -718 785 -959 84 -87 166 -162 315 -291
l25 -21 -104 5 c-57 4 -134 13 -170 21 -240 55 -524 196 -833 415 -50 36 -97
71 -105 78 -11 11 -13 95 -13 444 1 236 5 428 9 426 5 -2 46 -55 91 -118z
m-1143 28 l53 -52 0 -453 c0 -342 -3 -453 -12 -453 -6 0 -51 5 -100 11 l-88
12 0 423 0 423 42 70 c24 39 45 71 48 71 2 0 28 -23 57 -52z m1166 -992 c122
-84 207 -136 352 -213 66 -35 111 -62 100 -59 -11 2 -139 31 -285 62 -146 32
-271 62 -278 68 -19 14 -14 219 5 211 8 -2 55 -34 106 -69z m1757 -370 c0 -30
-3 -57 -7 -59 -14 -7 -197 11 -243 23 l-45 13 80 17 c44 10 103 27 130 38 81
32 85 31 85 -32z m569 -173 c66 -95 126 -163 209 -236 29 -26 49 -47 44 -47
-12 0 -273 78 -299 90 -22 9 -23 14 -23 145 0 74 2 135 4 135 3 0 32 -39 65
-87z m-1759 52 c309 -29 596 -79 835 -146 121 -35 275 -88 324 -113 l31 -17 0
-119 0 -120 -937 2 -938 3 -3 254 c-2 140 0 261 3 269 5 13 40 14 263 9 141
-4 331 -14 422 -22z"/>
</g>
</svg>
