<?xml version="1.0" standalone="no"?>
<!DOCTYPE svg PUBLIC "-//W3C//DTD SVG 20010904//EN"
 "http://www.w3.org/TR/2001/REC-SVG-20010904/DTD/svg10.dtd">
<svg version="1.0" xmlns="http://www.w3.org/2000/svg"
 width="457.000000pt" height="640.000000pt" viewBox="0 0 457.000000 640.000000"
 preserveAspectRatio="xMidYMid meet">
<metadata>
Created by potrace 1.13, written by Peter Selinger 2001-2015
</metadata>
<g transform="translate(0.000000,640.000000) scale(0.100000,-0.100000)"
fill="#ffd11a" stroke="none">
<path d="M837 6213 c-4 -4 -56 -10 -116 -14 -93 -6 -117 -11 -161 -35 -73 -40
-118 -99 -136 -176 -13 -58 -19 -67 -68 -105 -67 -51 -111 -114 -153 -218 -30
-73 -33 -89 -33 -188 0 -95 3 -113 25 -156 30 -60 83 -105 141 -121 51 -15 52
-20 28 -137 -14 -68 -14 -78 0 -108 9 -18 16 -37 16 -41 0 -4 10 -18 21 -30
27 -29 32 -72 13 -101 -16 -25 -20 -133 -4 -133 6 0 10 -33 10 -79 0 -70 3
-83 25 -109 39 -46 88 -66 130 -52 35 11 104 72 106 93 4 34 17 -112 18 -201
1 -57 5 -122 10 -145 5 -23 15 -82 21 -132 17 -129 48 -268 80 -360 42 -122
162 -421 221 -550 l52 -116 -21 -15 c-30 -21 -93 -117 -121 -183 -34 -79 -45
-152 -42 -271 4 -167 3 -271 -4 -332 -8 -70 -7 -70 132 -88 56 -7 106 -17 111
-24 5 -6 14 -45 20 -86 17 -102 3 -169 -59 -297 -27 -56 -49 -106 -49 -110 0
-18 93 -219 124 -267 17 -28 65 -109 106 -181 237 -418 276 -467 434 -547 124
-63 364 -148 470 -168 92 -17 203 -1 356 52 63 22 178 61 256 88 153 52 248
97 364 170 41 26 113 69 160 95 86 49 254 174 354 265 30 28 86 92 124 143 39
50 91 109 116 130 57 47 106 119 186 272 l62 120 -5 155 c-9 270 -43 513 -83
594 -44 91 -84 129 -191 184 -91 47 -275 112 -315 112 -20 0 -88 57 -88 74 0
7 9 32 21 56 18 37 21 57 17 139 -3 83 -8 105 -37 166 -32 68 -33 74 -35 215
-2 130 -5 153 -29 220 -15 41 -30 82 -32 90 -3 11 80 70 285 204 303 197 335
219 310 211 -21 -6 -481 -137 -617 -175 l-113 -31 -44 30 -45 31 71 123 c40
67 107 182 150 255 43 73 78 138 78 143 0 5 4 9 8 9 5 0 14 16 22 35 8 19 17
35 22 35 4 0 8 7 8 15 0 8 4 15 9 15 5 0 11 9 14 20 3 11 2 20 -1 20 -4 0 -48
-40 -97 -88 -50 -48 -170 -160 -266 -249 l-176 -162 -81 32 -81 32 -5 80 c-3
44 -10 168 -16 275 -14 279 -22 392 -25 388 -2 -2 -24 -102 -49 -223 -25 -121
-58 -280 -73 -352 l-28 -133 -86 0 -86 0 -264 290 c-180 198 -265 284 -268
273 -2 -10 2 -19 8 -21 6 -2 11 -12 11 -23 0 -10 5 -19 10 -19 6 0 10 -9 10
-20 0 -11 5 -20 10 -20 6 0 10 -6 10 -14 0 -8 4 -16 8 -18 10 -4 272 -522 272
-537 0 -13 -128 -111 -146 -111 -7 0 -86 18 -176 40 -603 146 -588 142 -595
124 -2 -5 50 -37 114 -71 65 -33 220 -113 346 -178 192 -98 227 -120 227 -139
0 -28 -20 -190 -24 -194 -3 -3 -444 -82 -458 -82 -5 0 -8 7 -8 16 0 8 -21 77
-46 152 -45 136 -71 192 -215 472 -84 164 -138 311 -173 480 -14 63 -32 135
-41 160 -21 59 -78 162 -121 218 l-34 45 63 27 c120 51 216 135 236 207 18 62
14 186 -6 223 -18 30 -18 31 5 50 31 25 28 48 -9 68 -46 25 -66 44 -74 70 -9
31 48 88 99 97 53 10 76 51 76 133 0 66 -6 74 -35 42 -26 -29 -89 -44 -127
-31 -17 6 -49 11 -72 11 -60 0 -70 10 -62 59 6 36 4 41 -14 41 -37 0 -100 32
-121 61 -20 28 -39 36 -52 22z m1256 -2767 c30 -63 21 -74 -122 -143 l-128
-61 -50 51 c-28 29 -65 73 -83 99 -22 32 -49 55 -84 72 l-51 25 250 -2 250 -2
18 -39z m74 -317 c29 -27 73 -59 98 -70 41 -18 45 -23 45 -55 0 -40 -22 -94
-49 -118 -17 -15 -23 -14 -87 18 -38 19 -92 42 -120 51 -65 21 -167 107 -162
138 2 17 22 27 103 53 55 18 104 32 109 33 5 1 33 -22 63 -50z"/>
</g>
</svg>
