<?xml version="1.0" standalone="no"?>
<!DOCTYPE svg PUBLIC "-//W3C//DTD SVG 20010904//EN"
 "http://www.w3.org/TR/2001/REC-SVG-20010904/DTD/svg10.dtd">
<svg version="1.0" xmlns="http://www.w3.org/2000/svg"
 width="680.000000pt" height="472.000000pt" viewBox="0 0 680.000000 472.000000"
 preserveAspectRatio="xMidYMid meet">
<metadata>
Created by potrace 1.13, written by Peter Selinger 2001-2015
</metadata>
<g transform="translate(0.000000,472.000000) scale(0.100000,-0.100000)"
fill="#ffd11a" stroke="none">
<path d="M3498 4660 c-26 -4 -51 -11 -56 -14 -6 -3 -10 -51 -11 -107 -2 -94 0
-101 16 -94 40 16 91 24 148 24 56 -1 53 -2 -40 -15 -72 -9 -103 -18 -112 -31
-19 -25 -17 -47 5 -38 33 14 98 24 152 23 50 0 47 -2 -35 -13 -100 -14 -124
-22 -126 -39 -1 -6 -3 -23 -5 -38 -1 -15 1 -30 7 -33 13 -9 12 -292 -2 -300
-6 -4 -8 -13 -5 -21 3 -8 4 -14 2 -14 -1 0 -92 40 -202 89 l-199 88 -42 98
c-23 54 -47 101 -55 105 -7 4 -126 46 -264 93 l-252 86 -78 -46 -78 -46 -86
31 c-170 61 -476 170 -497 176 l-23 7 0 -288 0 -289 490 -190 c269 -104 490
-191 490 -194 0 -3 -54 -24 -121 -45 l-120 -40 -37 -75 -37 -75 -196 -64 -196
-64 -13 -259 c-7 -142 -11 -260 -8 -263 2 -3 123 31 269 75 383 117 1232 371
1243 373 8 2 9 -103 2 -110 -1 -1 -120 -29 -265 -63 -144 -33 -267 -62 -272
-65 -5 -4 -9 -118 -9 -267 l0 -260 -22 6 c-13 3 -33 9 -45 12 l-22 6 -3 -335
c-2 -185 -1 -346 2 -358 5 -20 35 -30 295 -99 160 -43 309 -83 333 -89 38 -11
42 -15 42 -43 0 -28 -2 -30 -29 -25 -15 3 -52 9 -80 13 -43 5 -54 11 -62 30
-10 29 -23 32 -16 4 6 -23 -5 -25 -83 -10 -34 6 -58 17 -68 31 -13 19 -15 19
-33 3 -12 -10 -17 -25 -14 -35 5 -15 2 -17 -22 -10 -42 12 -84 3 -108 -23 -12
-13 -37 -27 -56 -31 -56 -12 -90 -34 -104 -69 -10 -24 -18 -130 -26 -364 -12
-323 -12 -332 7 -353 37 -41 85 -55 377 -111 88 -16 121 -27 128 -40 8 -15 6
-18 -18 -18 -49 1 -116 20 -129 38 -10 13 -17 15 -30 6 -24 -14 -27 -26 -12
-47 9 -11 51 -23 133 -37 66 -11 144 -26 173 -31 l54 -11 -4 -214 -3 -214 31
0 31 0 7 553 c7 525 13 627 38 627 8 0 2 -965 -7 -1108 l-5 -72 143 0 143 0
-1 53 c0 28 1 114 3 189 l2 138 283 2 282 3 3 27 c2 15 -2 37 -8 48 -11 20
-13 20 -29 6 -13 -11 -38 -16 -89 -16 -64 0 -71 2 -65 18 6 16 5 16 -14 -1
-17 -15 -42 -17 -190 -17 l-171 0 -6 63 c-9 107 -17 875 -9 880 9 4 416 -4
411 -9 -2 -2 -80 -19 -173 -39 -94 -19 -179 -38 -189 -41 -19 -6 -19 -19 -13
-421 3 -228 7 -417 10 -419 5 -5 542 62 614 76 64 14 114 47 124 81 4 15 8
171 10 348 l4 320 -25 25 c-14 14 -50 32 -81 40 -68 17 -104 49 -112 98 l-5
36 31 -9 c18 -5 35 -9 39 -9 5 0 8 150 8 333 l0 334 -267 73 c-148 40 -270 75
-272 76 -5 5 -12 3 287 80 l262 67 0 360 c0 301 -2 358 -14 354 -36 -14 -299
-97 -307 -97 -5 0 -9 43 -9 96 0 86 -2 95 -17 90 -10 -3 -82 -20 -160 -39
l-141 -34 -6 30 c-8 38 -8 332 0 339 8 9 10 398 2 398 -9 0 -11 294 -3 302 3
3 7 85 8 182 l2 176 -30 11 c-39 14 -236 20 -297 9z m-1563 -161 c121 -45 246
-90 278 -101 l57 -20 81 47 80 48 242 -85 242 -84 51 -104 51 -105 197 -84
c184 -78 213 -95 204 -120 -1 -5 -97 30 -213 78 l-209 88 -51 104 -50 104
-228 82 -228 82 -80 -51 -80 -51 -262 97 c-144 53 -265 96 -270 96 -4 0 -6
-93 -5 -206 l3 -206 180 -68 c99 -37 412 -155 695 -262 283 -108 579 -219 658
-248 136 -51 142 -54 142 -81 0 -27 -1 -28 -27 -18 -16 6 -221 84 -458 174
-236 89 -611 232 -832 316 l-403 153 0 253 c0 139 3 253 8 253 4 0 106 -36
227 -81z m179 -149 c74 -35 86 -44 86 -65 0 -14 -2 -25 -4 -25 -2 0 -29 11
-60 25 -31 14 -59 25 -62 25 -3 0 -4 -15 -2 -32 3 -29 10 -36 56 -57 41 -20
52 -29 52 -48 0 -21 -3 -23 -22 -17 -13 3 -35 13 -51 21 -34 17 -41 5 -35 -62
3 -46 -2 -52 -36 -39 -14 5 -16 29 -16 160 0 85 2 154 4 154 2 0 42 -18 90
-40z m267 -120 c22 -13 26 -50 4 -50 -8 0 -15 -5 -15 -10 0 -6 7 -13 15 -16 8
-4 15 -15 15 -26 0 -14 -5 -18 -15 -14 -13 4 -15 -8 -15 -79 0 -47 -3 -85 -7
-85 -28 1 -35 21 -35 98 0 58 -4 84 -14 93 -18 15 -18 35 1 43 8 3 15 14 15
24 0 33 17 40 51 22z m179 -85 c7 -8 10 -31 8 -50 -3 -30 -1 -34 14 -29 12 3
28 -5 48 -25 29 -28 30 -33 30 -115 0 -47 -2 -86 -4 -86 -30 0 -36 16 -36 90
0 56 -4 81 -15 90 -25 21 -35 1 -35 -71 0 -67 -1 -70 -22 -67 -22 3 -23 6 -26
141 -2 112 0 137 11 137 8 0 20 -7 27 -15z m293 -129 c15 -15 73 -263 64 -273
-13 -12 -37 8 -37 31 0 18 -9 30 -30 41 -39 20 -50 19 -50 -5 0 -20 -16 -26
-37 -12 -15 9 46 232 64 232 6 0 18 -6 26 -14z m282 -189 c18 -15 28 -36 32
-65 6 -46 1 -50 -42 -30 -31 14 -40 6 -25 -21 8 -16 17 -20 34 -15 28 7 43
-11 26 -31 -18 -22 -44 -18 -70 10 -31 34 -41 133 -15 158 22 22 29 21 60 -6z
m-412 -184 c4 -4 -58 -27 -138 -52 l-146 -46 -37 -74 -37 -74 -184 -63 c-101
-35 -185 -65 -187 -67 -2 -2 -7 -96 -10 -209 l-7 -206 299 93 c456 142 1151
355 1158 355 3 0 6 -7 6 -15 0 -8 -15 -18 -32 -23 -46 -13 -493 -150 -998
-304 -234 -72 -436 -133 -449 -136 l-23 -5 6 99 c3 54 8 160 12 236 l6 136
190 64 190 63 38 75 37 74 134 42 c140 44 161 48 172 37z m777 -293 c0 -181
-2 -211 -15 -217 -9 -3 -18 -4 -20 -2 -2 2 -7 92 -10 199 -7 177 -6 198 9 213
10 9 22 17 27 17 5 0 9 -88 9 -210z m-1298 -123 c-7 -8 -30 -19 -52 -26 -30
-9 -40 -17 -40 -32 0 -21 15 -22 64 -3 11 4 16 0 16 -15 0 -15 -10 -23 -39
-32 -30 -9 -40 -18 -44 -38 -3 -14 -4 -27 -3 -29 2 -1 21 4 44 12 41 15 52 13
52 -10 0 -10 -106 -54 -129 -54 -10 0 0 204 10 215 5 5 33 16 62 25 54 17 79
12 59 -13z m1868 -37 c19 -19 20 -33 20 -240 0 -233 -5 -265 -48 -304 -16 -14
-103 -31 -393 -77 -207 -34 -376 -56 -381 -51 -4 4 155 34 359 66 203 33 378
65 391 73 45 28 52 66 52 292 0 210 0 211 -24 226 -22 14 -57 8 -538 -100
-284 -63 -523 -118 -532 -121 -39 -15 -46 -55 -46 -252 0 -239 -5 -232 133
-208 107 18 135 20 122 7 -14 -12 -218 -43 -237 -36 -31 12 -38 54 -38 228 0
182 8 233 40 262 21 19 42 24 605 151 187 43 365 83 395 90 79 17 98 16 120
-6z m-258 -134 c29 -24 73 -67 97 -95 52 -62 55 -49 -60 -203 -107 -144 -143
-162 -138 -69 2 35 0 46 -12 44 -12 -2 -187 -33 -554 -99 -49 -9 -98 -18 -107
-21 -16 -4 -18 5 -18 99 l0 104 303 63 c166 34 324 67 351 73 l48 10 -6 44
c-6 50 7 94 28 94 8 0 38 -20 68 -44z m48 -756 c228 -62 438 -118 466 -126 28
-8 62 -26 75 -40 24 -25 24 -28 27 -257 3 -254 -2 -279 -50 -285 -14 -2 -111
13 -215 33 -625 120 -849 167 -871 181 -51 33 -55 66 -48 338 4 137 12 258 17
268 17 32 49 37 119 17 36 -9 252 -68 480 -129z m-638 -232 l3 -283 384 -78
c212 -42 387 -79 389 -82 18 -17 -47 -7 -399 63 l-394 78 -3 292 c-1 190 1
292 8 292 6 0 11 -103 12 -282z m1001 -503 c65 -12 120 -25 124 -29 13 -13 -9
-19 -82 -24 -71 -4 -75 -3 -68 14 6 18 6 18 -14 2 -14 -13 -37 -18 -86 -18
l-67 0 0 45 0 46 38 -7 c20 -4 90 -17 155 -29z m-1163 -197 c0 -29 -7 -154
-14 -278 -9 -147 -11 -229 -4 -237 11 -14 57 -23 256 -54 103 -16 142 -25 142
-35 0 -8 -1 -14 -2 -14 -85 9 -403 71 -414 81 -15 12 -16 33 -10 194 11 320
18 395 33 395 9 0 13 -15 13 -52z m1352 -250 c4 -134 3 -299 0 -366 -6 -114
-9 -125 -31 -143 -13 -10 -30 -19 -38 -19 -11 0 -9 5 6 18 12 9 26 35 31 57 5
22 10 187 10 368 0 180 4 327 8 327 5 0 11 -109 14 -242z"/>
<path d="M3287 2406 c-11 -12 -16 -67 -22 -259 -6 -214 -5 -249 9 -279 9 -18
26 -39 37 -47 18 -11 879 -185 1022 -206 76 -12 77 -8 77 245 0 229 -5 259
-44 279 -25 13 -1025 281 -1048 281 -9 0 -23 -6 -31 -14z m169 -206 c24 -6
181 -44 350 -85 168 -41 310 -75 314 -75 4 0 6 28 6 63 -1 78 14 81 64 14 35
-46 121 -198 128 -225 7 -26 -147 -212 -175 -212 -16 0 -26 40 -21 84 3 29 0
36 -17 40 -17 4 -233 51 -652 142 l-73 15 0 131 c0 117 2 130 17 124 9 -4 36
-11 59 -16z"/>
<path d="M3447 2153 c-22 -80 -17 -149 14 -186 17 -21 19 -21 36 -4 14 13 17
33 17 90 0 39 -6 82 -12 95 -15 26 -49 29 -55 5z"/>
<path d="M4760 4613 c0 -58 -23 -2509 -36 -3846 l-7 -717 27 0 c14 0 26 1 26
3 2 37 50 4249 50 4400 l0 217 -30 0 c-30 0 -30 0 -30 -57z"/>
<path d="M4860 4633 c0 -68 -29 -2680 -40 -3613 -6 -503 -12 -927 -14 -943
l-3 -27 154 0 153 0 0 173 c0 94 7 1018 15 2052 8 1034 15 1996 15 2138 l0
257 -140 0 -140 0 0 -37z"/>
</g>
</svg>
