<?xml version="1.0" encoding="utf-8"?>
<!-- Generator: Adobe Illustrator 14.0.0, SVG Export Plug-In . SVG Version: 6.00 Build 43363)  -->
<svg version="1.2" baseProfile="tiny" id="  _xBC__xB2_  _1"
	 xmlns="http://www.w3.org/2000/svg" xmlns:xlink="http://www.w3.org/1999/xlink" x="0px" y="0px" width="595px" height="842px"
	 viewBox="0 0 595 842" xml:space="preserve">
<path fill="none" stroke="#D9DADB" stroke-width="5.3972" stroke-linecap="round" stroke-linejoin="round" stroke-miterlimit="22.9256" d="
	M223.016,210.278c0-4.663,1.7-8.646,4.954-11.949c3.303-3.254,7.287-4.906,11.901-4.906h175.981h49.108
	c4.663,0,8.646,1.651,11.949,4.906c3.303,3.303,4.905,7.286,4.905,11.949v96.273v87.772c0,4.663-1.603,8.646-4.905,11.852
	c-1.798,1.846-3.74,3.108-5.878,3.935"/>
<path fill="none" stroke="#D9DADB" stroke-width="5.3972" stroke-linecap="round" stroke-linejoin="round" stroke-miterlimit="22.9256" d="
	M172.888,166.222c-2.089,35.41,14.572,52.411,50.128,51.002v-6.946"/>
<path fill="none" stroke="#D9DADB" stroke-width="5.3972" stroke-linecap="round" stroke-linejoin="round" stroke-miterlimit="22.9256" d="
	M232.73,409.624c-1.749-0.826-3.303-1.943-4.76-3.449c-3.254-3.206-4.954-7.189-4.954-11.852v-87.772v-89.327"/>
<polyline fill="none" stroke="#D9DADB" stroke-width="5.3972" stroke-linecap="round" stroke-linejoin="round" stroke-miterlimit="22.9256" points="
	415.853,306.551 415.853,193.423 415.853,136.446 "/>
<line fill="none" stroke="#D9DADB" stroke-width="5.3972" stroke-linecap="round" stroke-linejoin="round" stroke-miterlimit="22.9256" x1="349.113" y1="212.95" x2="349.113" y2="306.551"/>
<line fill="none" stroke="#D9DADB" stroke-width="5.3972" stroke-linecap="round" stroke-linejoin="round" stroke-miterlimit="22.9256" x1="349.113" y1="306.551" x2="415.853" y2="306.551"/>
<polyline fill="none" stroke="#D9DADB" stroke-width="5.3972" stroke-linecap="round" stroke-linejoin="round" stroke-miterlimit="22.9256" points="
	349.113,306.551 223.016,306.551 143.404,306.551 "/>
<path fill="none" stroke="#D9DADB" stroke-width="5.3972" stroke-linecap="round" stroke-linejoin="round" stroke-miterlimit="22.9256" d="
	M415.853,306.551h65.963h19.575c3.206,0,6.315,0.389,9.229,1.214c5.488,1.458,10.346,4.372,14.62,8.695
	c2.381,2.38,4.421,5.003,5.878,7.674"/>
<path fill="none" stroke="#D9DADB" stroke-width="5.3972" stroke-linecap="round" stroke-linejoin="round" stroke-miterlimit="22.9256" d="
	M620.25,192.889c-37.158,14.426-65.282,53.334-84.518,116.673l-4.614,14.572"/>
<line fill="none" stroke="#D9DADB" stroke-width="5.3972" stroke-linecap="round" stroke-linejoin="round" stroke-miterlimit="22.9256" x1="620.25" y1="158.742" x2="620.25" y2="192.889"/>
<path fill="none" stroke="#D9DADB" stroke-width="5.3972" stroke-linecap="round" stroke-linejoin="round" stroke-miterlimit="22.9256" d="
	M658.817,186.477c-13.746-0.437-26.618,1.652-38.567,6.412"/>
<polyline fill="none" stroke="#D9DADB" stroke-width="5.3972" stroke-linecap="round" stroke-linejoin="round" stroke-miterlimit="22.9256" points="
	799.584,624.514 745.376,509.151 620.25,509.151 "/>
<path fill="none" stroke="#D9DADB" stroke-width="5.3972" stroke-linecap="round" stroke-linejoin="round" stroke-miterlimit="22.9256" d="
	M531.118,324.134c2.72,4.857,3.983,10.249,3.983,16.126v168.891"/>
<path fill="none" stroke="#D9DADB" stroke-width="5.3972" stroke-linecap="round" stroke-linejoin="round" stroke-miterlimit="22.9256" d="
	M531.118,324.134l-10.734,34.099c-2.624,7.966-5.927,15.009-9.764,21.227c-3.012,5.003-6.46,9.472-10.249,13.309
	c-8.16,8.306-17.875,14.038-29.339,17.341"/>
<path fill="none" stroke="#D9DADB" stroke-width="5.3972" stroke-linecap="round" stroke-linejoin="round" stroke-miterlimit="22.9256" d="
	M415.853,383.249h18.556c9.277,0,17.243,3.303,23.85,9.86c5.148,5.197,8.258,11.075,9.374,17.875
	c0.341,1.895,0.486,3.886,0.486,5.975v92.193"/>
<path fill="none" stroke="#D9DADB" stroke-width="5.3972" stroke-linecap="round" stroke-linejoin="round" stroke-miterlimit="22.9256" d="
	M468.118,509.151v2.283c0,9.325-3.303,17.243-9.86,23.801c-6.606,6.605-14.572,9.908-23.85,9.908h-18.556"/>
<line fill="none" stroke="#D9DADB" stroke-width="5.3972" stroke-linecap="round" stroke-linejoin="round" stroke-miterlimit="22.9256" x1="620.25" y1="509.151" x2="535.102" y2="509.151"/>
<line fill="none" stroke="#D9DADB" stroke-width="5.3972" stroke-linecap="round" stroke-linejoin="round" stroke-miterlimit="22.9256" x1="535.102" y1="509.151" x2="535.102" y2="579.291"/>
<line fill="none" stroke="#D9DADB" stroke-width="5.3972" stroke-linecap="round" stroke-linejoin="round" stroke-miterlimit="22.9256" x1="468.118" y1="509.151" x2="535.102" y2="509.151"/>
<line fill="none" stroke="#D9DADB" stroke-width="5.3972" stroke-linecap="round" stroke-linejoin="round" stroke-miterlimit="22.9256" x1="237.442" y1="409.624" x2="239.288" y2="409.624"/>
<line fill="none" stroke="#D9DADB" stroke-width="5.3972" stroke-linecap="round" stroke-linejoin="round" stroke-miterlimit="22.9256" x1="237.442" y1="409.624" x2="237.442" y2="409.624"/>
<line fill="none" stroke="#D9DADB" stroke-width="5.3972" stroke-linecap="round" stroke-linejoin="round" stroke-miterlimit="22.9256" x1="239.288" y1="409.624" x2="237.442" y2="409.624"/>
<path fill="none" stroke="#D9DADB" stroke-width="5.3972" stroke-linecap="round" stroke-linejoin="round" stroke-miterlimit="22.9256" d="
	M232.73,409.624c0.097,0,0.097,0,0.097,0"/>
<line fill="none" stroke="#D9DADB" stroke-width="5.3972" stroke-linecap="round" stroke-linejoin="round" stroke-miterlimit="22.9256" x1="230.982" y1="409.624" x2="232.73" y2="409.624"/>
<line fill="none" stroke="#D9DADB" stroke-width="5.3972" stroke-linecap="round" stroke-linejoin="round" stroke-miterlimit="22.9256" x1="232.828" y1="409.624" x2="230.982" y2="409.624"/>
<path fill="none" stroke="#D9DADB" stroke-width="5.3972" stroke-linecap="round" stroke-linejoin="round" stroke-miterlimit="22.9256" d="
	M236.713,509.151v-92.193c0-2.088,0.195-4.08,0.535-5.975"/>
<line fill="none" stroke="#D9DADB" stroke-width="5.3972" stroke-linecap="round" stroke-linejoin="round" stroke-miterlimit="22.9256" x1="232.73" y1="409.624" x2="237.442" y2="409.624"/>
<line fill="none" stroke="#D9DADB" stroke-width="5.3972" stroke-linecap="round" stroke-linejoin="round" stroke-miterlimit="22.9256" x1="237.442" y1="409.624" x2="232.828" y2="409.624"/>
<path fill="none" stroke="#D9DADB" stroke-width="5.3972" stroke-linecap="round" stroke-linejoin="round" stroke-miterlimit="22.9256" d="
	M237.442,409.624c1.312-6.218,4.323-11.658,9.18-16.515c6.558-6.557,14.523-9.86,23.85-9.86h145.38"/>
<path fill="none" stroke="#D9DADB" stroke-width="5.3972" stroke-linecap="round" stroke-linejoin="round" stroke-miterlimit="22.9256" d="
	M239.288,409.624h43.911c4.517,0,6.751,2.234,6.751,6.751v92.776"/>
<path fill="none" stroke="#D9DADB" stroke-width="5.3972" stroke-linecap="round" stroke-linejoin="round" stroke-miterlimit="22.9256" d="
	M289.95,545.144h-19.478c-9.326,0-17.292-3.303-23.85-9.908c-6.606-6.558-9.909-14.476-9.909-23.801v-2.283"/>
<line fill="none" stroke="#D9DADB" stroke-width="5.3972" stroke-linecap="round" stroke-linejoin="round" stroke-miterlimit="22.9256" x1="289.95" y1="509.151" x2="289.95" y2="545.144"/>
<line fill="none" stroke="#D9DADB" stroke-width="5.3972" stroke-linecap="round" stroke-linejoin="round" stroke-miterlimit="22.9256" x1="289.95" y1="509.151" x2="236.713" y2="509.151"/>
<line fill="none" stroke="#D9DADB" stroke-width="5.3972" stroke-linecap="round" stroke-linejoin="round" stroke-miterlimit="22.9256" x1="415.853" y1="509.151" x2="415.853" y2="545.144"/>
<line fill="none" stroke="#D9DADB" stroke-width="5.3972" stroke-linecap="round" stroke-linejoin="round" stroke-miterlimit="22.9256" x1="289.95" y1="509.151" x2="415.853" y2="509.151"/>
<line fill="none" stroke="#D9DADB" stroke-width="5.3972" stroke-linecap="round" stroke-linejoin="round" stroke-miterlimit="22.9256" x1="415.853" y1="545.144" x2="289.95" y2="545.144"/>
<line fill="none" stroke="#D9DADB" stroke-width="5.3972" stroke-linecap="round" stroke-linejoin="round" stroke-miterlimit="22.9256" x1="415.853" y1="509.151" x2="415.853" y2="383.249"/>
<line fill="none" stroke="#D9DADB" stroke-width="5.3972" stroke-linecap="round" stroke-linejoin="round" stroke-miterlimit="22.9256" x1="289.95" y1="634.228" x2="289.95" y2="681.441"/>
<line fill="none" stroke="#D9DADB" stroke-width="5.3972" stroke-linecap="round" stroke-linejoin="round" stroke-miterlimit="22.9256" x1="289.95" y1="634.228" x2="364.413" y2="634.228"/>
<line fill="none" stroke="#D9DADB" stroke-width="5.3972" stroke-linecap="round" stroke-linejoin="round" stroke-miterlimit="22.9256" x1="289.95" y1="545.144" x2="289.95" y2="634.228"/>
<polyline fill="none" stroke="#D9DADB" stroke-width="5.3972" stroke-linecap="round" stroke-linejoin="round" stroke-miterlimit="22.9256" points="
	638.32,714.132 470.741,714.132 415.853,659.243 415.853,545.144 "/>
<line fill="none" stroke="#D9DADB" stroke-width="5.3972" stroke-linecap="round" stroke-linejoin="round" stroke-miterlimit="22.9256" x1="468.118" y1="509.151" x2="415.853" y2="509.151"/>
<line fill="none" stroke="#D9DADB" stroke-width="5.3972" stroke-linecap="round" stroke-linejoin="round" stroke-miterlimit="22.9256" x1="415.853" y1="383.249" x2="415.853" y2="306.551"/>
<line fill="none" stroke="#D9DADB" stroke-width="5.3972" stroke-linecap="round" stroke-linejoin="round" stroke-miterlimit="22.9256" x1="620.25" y1="192.889" x2="620.25" y2="509.151"/>
<path fill="none" stroke="#D9DADB" stroke-width="5.3972" stroke-linecap="round" stroke-linejoin="round" stroke-miterlimit="22.9256" d="
	M59.177,219.798h77.475c4.468,0,6.751,2.283,6.751,6.752v80"/>
<line fill="none" stroke="#D9DADB" stroke-width="5.3972" stroke-linecap="round" stroke-linejoin="round" stroke-miterlimit="22.9256" x1="61.849" y1="306.551" x2="143.404" y2="306.551"/>
<path fill="none" stroke="#D9DADB" stroke-width="5.3972" stroke-linecap="round" stroke-linejoin="round" stroke-miterlimit="22.9256" d="
	M150.156,409.624c-4.518,0-6.752-2.234-6.752-6.752v-96.321"/>
<line fill="none" stroke="#D9DADB" stroke-width="5.3972" stroke-linecap="round" stroke-linejoin="round" stroke-miterlimit="22.9256" x1="150.156" y1="550.195" x2="150.156" y2="509.151"/>
<line fill="none" stroke="#D9DADB" stroke-width="5.3972" stroke-linecap="round" stroke-linejoin="round" stroke-miterlimit="22.9256" x1="150.156" y1="509.151" x2="150.156" y2="409.624"/>
<polyline fill="none" stroke="#D9DADB" stroke-width="5.3972" stroke-linecap="round" stroke-linejoin="round" stroke-miterlimit="22.9256" points="
	150.156,509.151 -51.279,509.151 -77.703,484.087 "/>
<line fill="none" stroke="#D9DADB" stroke-width="5.3972" stroke-linecap="round" stroke-linejoin="round" stroke-miterlimit="22.9256" x1="230.982" y1="409.624" x2="150.156" y2="409.624"/>
<line fill="none" stroke="#D9DADB" stroke-width="5.3972" stroke-linecap="round" stroke-linejoin="round" stroke-miterlimit="22.9256" x1="236.713" y1="509.151" x2="150.156" y2="509.151"/>
<line fill="none" stroke="#D9DADB" stroke-width="5.3972" stroke-linecap="round" stroke-linejoin="round" stroke-miterlimit="22.9256" x1="48.831" y1="634.228" x2="289.95" y2="634.228"/>
<path fill="none" stroke="#554C7A" stroke-width="5.3972" stroke-linecap="round" stroke-linejoin="round" stroke-miterlimit="22.9256" d="
	M220.199,214.407c-35.507,1.409-52.216-15.592-50.128-51.002"/>
<line fill="none" stroke="#554C7A" stroke-width="5.3972" stroke-linecap="round" stroke-linejoin="round" stroke-miterlimit="22.9256" x1="234.625" y1="406.807" x2="229.962" y2="406.807"/>
<path fill="none" stroke="#554C7A" stroke-width="5.3972" stroke-linecap="round" stroke-linejoin="round" stroke-miterlimit="22.9256" d="
	M229.962,406.807h-1.797h1.749C229.962,406.807,229.962,406.807,229.962,406.807"/>
<polyline fill="none" stroke="#554C7A" stroke-width="5.3972" stroke-linecap="round" stroke-linejoin="round" stroke-miterlimit="22.9256" points="
	234.625,406.807 236.374,406.807 234.625,406.807 "/>
<line fill="none" stroke="#554C7A" stroke-width="5.3972" stroke-linecap="round" stroke-linejoin="round" stroke-miterlimit="22.9256" x1="465.301" y1="506.285" x2="465.301" y2="508.617"/>
<line fill="none" stroke="#554C7A" stroke-width="5.3972" stroke-linecap="round" stroke-linejoin="round" stroke-miterlimit="22.9256" x1="233.896" y1="508.617" x2="233.896" y2="506.285"/>
<path fill="none" stroke="#176FA5" stroke-width="5.3972" stroke-linecap="round" stroke-linejoin="round" stroke-miterlimit="22.9256" d="
	M233.896,506.285v-92.144c0-2.04,0.146-4.031,0.486-6.023"/>
<path fill="none" stroke="#176FA5" stroke-width="5.3972" stroke-linecap="round" stroke-linejoin="round" stroke-miterlimit="22.9256" d="
	M234.625,406.807c1.36-6.217,4.372-11.755,9.181-16.563c6.557-6.509,14.523-9.812,23.801-9.812h145.381h18.555
	c9.326,0,17.292,3.303,23.898,9.812c5.101,5.148,8.209,11.075,9.375,17.875c0.34,1.992,0.485,3.983,0.485,6.023v92.144"/>
<path fill="none" stroke="#176FA5" stroke-width="5.3972" stroke-linecap="round" stroke-linejoin="round" stroke-miterlimit="22.9256" d="
	M465.301,508.617c0,9.277-3.303,17.243-9.86,23.801c-6.606,6.605-14.572,9.909-23.898,9.909h-18.555H287.133h-19.527
	c-9.277,0-17.244-3.304-23.801-9.909c-6.606-6.558-9.909-14.523-9.909-23.801"/>
<polyline fill="none" stroke="#498677" stroke-width="5.3972" stroke-linecap="round" stroke-linejoin="round" stroke-miterlimit="22.9256" points="
	635.503,711.314 467.924,711.314 412.987,656.426 412.987,542.327 412.987,506.285 412.987,380.431 412.987,303.685 
	412.987,190.557 412.987,133.629 "/>
<path fill="none" stroke="#008BD0" stroke-width="5.3972" stroke-linecap="round" stroke-linejoin="round" stroke-miterlimit="22.9256" d="
	M236.374,406.807h44.008c4.517,0,6.752,2.283,6.752,6.751v92.727v36.042v89.035v47.262"/>
<path fill="none" stroke="#008BD0" stroke-width="5.3972" stroke-linecap="round" stroke-linejoin="round" stroke-miterlimit="22.9256" d="
	M56.312,216.933h77.523c4.469,0,6.752,2.332,6.752,6.752v80v96.37c0,4.518,2.234,6.752,6.751,6.752h80.827"/>
<line fill="none" stroke="#008BD0" stroke-width="5.3972" stroke-linecap="round" stroke-linejoin="round" stroke-miterlimit="22.9256" x1="229.914" y1="406.807" x2="234.625" y2="406.807"/>
<polyline fill="none" stroke="#87888A" stroke-width="5.3972" stroke-linecap="round" stroke-linejoin="round" stroke-miterlimit="22.9256" points="
	617.434,155.876 617.434,190.022 617.434,506.285 "/>
<polyline fill="none" stroke="#87888A" stroke-width="5.3972" stroke-linecap="round" stroke-linejoin="round" stroke-miterlimit="22.9256" points="
	46.014,631.362 287.133,631.362 361.597,631.362 "/>
<polyline fill="none" stroke="#A5027D" stroke-width="5.3972" stroke-linecap="round" stroke-linejoin="round" stroke-miterlimit="22.9256" points="
	147.338,547.379 147.338,506.285 147.338,406.807 "/>
<line fill="none" stroke="#BCBD43" stroke-width="5.3972" stroke-linecap="round" stroke-linejoin="round" stroke-miterlimit="22.9256" x1="346.296" y1="210.132" x2="346.296" y2="303.685"/>
<polyline fill="none" stroke="#E2001A" stroke-width="5.3972" stroke-linecap="round" stroke-linejoin="round" stroke-miterlimit="22.9256" points="
	796.718,621.647 742.559,506.285 617.434,506.285 532.284,506.285 465.301,506.285 412.987,506.285 287.133,506.285 
	233.896,506.285 147.338,506.285 -54.096,506.285 -80.569,481.27 "/>
<path fill="none" stroke="#E8526B" stroke-width="5.3972" stroke-linecap="round" stroke-linejoin="round" stroke-miterlimit="22.9256" d="
	M59.032,303.685h81.555h79.612h126.097h66.691h66.012h19.526c3.254,0,6.363,0.437,9.277,1.214c5.44,1.506,10.298,4.42,14.621,8.743
	c2.38,2.332,4.371,4.955,5.877,7.675c2.672,4.857,3.983,10.249,3.983,16.126v168.842v70.188"/>
<path fill="none" stroke="#EE7F00" stroke-width="5.3972" stroke-linecap="round" stroke-linejoin="round" stroke-miterlimit="22.9256" d="
	M229.914,406.807c-1.7-0.826-3.303-1.992-4.809-3.449c-3.206-3.254-4.906-7.237-4.906-11.9v-87.772v-89.278"/>
<line fill="none" stroke="#EE7F00" stroke-width="5.3972" stroke-linecap="round" stroke-linejoin="round" stroke-miterlimit="22.9256" x1="220.199" y1="214.407" x2="220.199" y2="207.46"/>
<path fill="none" stroke="#EE7F00" stroke-width="5.3972" stroke-linecap="round" stroke-linejoin="round" stroke-miterlimit="22.9256" d="
	M220.199,207.46c0-4.663,1.7-8.646,4.906-11.949c3.303-3.254,7.286-4.955,11.949-4.955h175.934h49.107
	c4.663,0,8.646,1.7,11.949,4.955c3.304,3.303,4.955,7.286,4.955,11.949v96.225v87.772c0,4.663-1.651,8.646-4.955,11.9
	c-1.748,1.797-3.691,3.109-5.877,3.886"/>
<path fill="none" stroke="#F6A800" stroke-width="5.3972" stroke-linecap="round" stroke-linejoin="round" stroke-miterlimit="22.9256" d="
	M656.001,183.611c-13.747-0.388-26.619,1.7-38.567,6.412c-37.208,14.427-65.332,53.383-84.567,116.723l-4.565,14.572l-10.734,34.05
	c-2.623,7.966-5.927,15.058-9.764,21.324c-3.061,4.955-6.509,9.375-10.249,13.212c-8.16,8.306-17.875,14.135-29.387,17.341"/>
<path fill-rule="evenodd" fill="#FFFFFF" d="M407.353,184.923c-1.651,1.554-2.429,3.4-2.38,5.634
	c-0.049,2.234,0.729,4.177,2.38,5.731c1.555,1.651,3.4,2.38,5.731,2.38c2.234,0,4.081-0.729,5.635-2.38
	c1.651-1.554,2.38-3.497,2.429-5.731c-0.049-2.234-0.777-4.081-2.429-5.634c-1.554-1.652-3.4-2.429-5.635-2.429
	C410.753,182.494,408.907,183.271,407.353,184.923z"/>
<path fill-rule="evenodd" fill="#FFFFFF" d="M407.353,298.051c-1.651,1.554-2.429,3.448-2.38,5.634
	c-0.049,2.234,0.729,4.226,2.38,5.78c1.555,1.603,3.4,2.332,5.731,2.332c2.234,0,4.081-0.729,5.635-2.332
	c1.651-1.554,2.38-3.546,2.429-5.78c-0.049-2.186-0.777-4.081-2.429-5.634c-1.554-1.652-3.4-2.429-5.635-2.429
	C410.753,295.622,408.907,296.399,407.353,298.051z"/>
<path fill-rule="evenodd" fill="#FFFFFF" d="M352.027,298.051c-1.555-1.652-3.449-2.429-5.683-2.429
	c-2.283,0-4.178,0.777-5.732,2.429c-1.603,1.554-2.429,3.448-2.38,5.634c-0.049,2.234,0.777,4.226,2.38,5.78
	c1.555,1.603,3.449,2.332,5.732,2.332c2.233,0,4.128-0.729,5.683-2.332c1.603-1.554,2.331-3.546,2.429-5.78
	C354.358,301.499,353.63,299.604,352.027,298.051z"/>
<path fill-rule="evenodd" fill="#FFFFFF" d="M484.73,298.051c-1.555-1.652-3.449-2.429-5.684-2.429
	c-2.283,0-4.177,0.777-5.731,2.429c-1.603,1.554-2.429,3.448-2.38,5.634c-0.049,2.234,0.777,4.226,2.38,5.78
	c1.555,1.603,3.448,2.332,5.731,2.332c2.234,0,4.129-0.729,5.684-2.332c1.603-1.554,2.331-3.546,2.429-5.78
	C487.062,301.499,486.333,299.604,484.73,298.051z"/>
<path fill-rule="evenodd" fill="#FFFFFF" d="M421.147,380.431c-0.049-2.234-0.777-4.129-2.429-5.731
	c-1.554-1.555-3.4-2.38-5.635-2.38c-2.331,0-4.177,0.826-5.731,2.38c-1.651,1.603-2.429,3.497-2.38,5.731
	c-0.049,2.186,0.729,4.08,2.38,5.732c1.555,1.554,3.4,2.332,5.731,2.332c2.234,0,4.081-0.777,5.635-2.332
	C420.37,384.511,421.099,382.617,421.147,380.431z"/>
<path fill-rule="evenodd" fill="#FFFFFF" d="M225.93,209.889c-1.554-1.651-3.449-2.429-5.731-2.429
	c-2.234,0-4.129,0.777-5.732,2.429c-1.554,1.506-2.38,3.4-2.38,5.635s0.826,4.177,2.38,5.732c1.603,1.651,3.498,2.38,5.732,2.38
	c2.283,0,4.177-0.729,5.731-2.38c1.603-1.555,2.38-3.498,2.38-5.732S227.533,211.395,225.93,209.889z"/>
<path fill-rule="evenodd" fill="#FFFFFF" d="M470.207,401.512c-1.555-1.554-3.449-2.331-5.684-2.331
	c-2.282,0-4.177,0.777-5.731,2.331c-1.603,1.652-2.429,3.546-2.332,5.732c-0.097,2.234,0.729,4.226,2.332,5.732
	c1.555,1.554,3.449,2.38,5.731,2.38c2.234,0,4.129-0.826,5.684-2.38c1.603-1.506,2.38-3.498,2.429-5.732
	C472.587,405.058,471.81,403.164,470.207,401.512z"/>
<path fill-rule="evenodd" fill="#FFFFFF" d="M471.032,500.554c-1.554-1.555-3.448-2.332-5.683-2.332
	c-2.283,0-4.178,0.777-5.732,2.332c-1.603,1.651-2.428,3.497-2.38,5.731c-0.048,2.234,0.777,4.129,2.38,5.731
	c1.555,1.555,3.449,2.38,5.732,2.38c2.234,0,4.129-0.825,5.683-2.38c1.604-1.603,2.332-3.497,2.429-5.731
	C473.364,504.051,472.636,502.205,471.032,500.554z"/>
<path fill-rule="evenodd" fill="#FFFFFF" d="M240.356,401.075c-1.603-1.554-3.448-2.38-5.683-2.38c-2.283,0-4.177,0.826-5.731,2.38
	c-1.603,1.603-2.429,3.498-2.332,5.732c-0.097,2.234,0.729,4.08,2.332,5.731c1.554,1.603,3.449,2.332,5.731,2.332
	c2.235,0,4.081-0.729,5.683-2.332c1.603-1.651,2.38-3.497,2.429-5.731C242.737,404.572,241.959,402.678,240.356,401.075z"/>
<path fill-rule="evenodd" fill="#FFFFFF" d="M239.628,500.554c-1.555-1.555-3.449-2.332-5.684-2.332
	c-2.283,0-4.177,0.777-5.731,2.332c-1.603,1.651-2.429,3.497-2.332,5.731c-0.097,2.234,0.729,4.129,2.332,5.731
	c1.554,1.555,3.449,2.38,5.731,2.38c2.235,0,4.129-0.825,5.684-2.38c1.603-1.603,2.331-3.497,2.429-5.731
	C241.959,504.051,241.231,502.205,239.628,500.554z"/>
<path fill-rule="evenodd" fill="#FFFFFF" d="M281.45,500.554c-1.603,1.651-2.429,3.497-2.38,5.731
	c-0.049,2.234,0.777,4.129,2.38,5.731c1.554,1.555,3.448,2.38,5.731,2.38c2.234,0,4.129-0.825,5.683-2.38
	c1.603-1.603,2.332-3.497,2.429-5.731c-0.097-2.234-0.826-4.08-2.429-5.731c-1.554-1.555-3.449-2.332-5.683-2.332
	C284.898,498.222,283.004,498.999,281.45,500.554z"/>
<path fill-rule="evenodd" fill="#FFFFFF" d="M292.865,536.595c-1.554-1.554-3.449-2.38-5.683-2.38c-2.283,0-4.177,0.826-5.731,2.38
	c-1.603,1.604-2.429,3.498-2.38,5.732c-0.049,2.234,0.777,4.129,2.38,5.731c1.554,1.555,3.448,2.38,5.731,2.38
	c2.234,0,4.129-0.825,5.683-2.38c1.603-1.603,2.332-3.497,2.429-5.731C295.196,540.093,294.468,538.198,292.865,536.595z"/>
<path fill-rule="evenodd" fill="#FFFFFF" d="M421.147,506.285c-0.049-2.234-0.777-4.08-2.429-5.731
	c-1.554-1.555-3.4-2.332-5.635-2.332c-2.331,0-4.177,0.777-5.731,2.332c-1.651,1.651-2.429,3.497-2.38,5.731
	c-0.049,2.234,0.729,4.129,2.38,5.731c1.555,1.555,3.4,2.38,5.731,2.38c2.234,0,4.081-0.825,5.635-2.38
	C420.37,510.414,421.099,508.52,421.147,506.285z"/>
<path fill-rule="evenodd" fill="#FFFFFF" d="M421.147,542.327c-0.049-2.234-0.777-4.129-2.429-5.732
	c-1.554-1.554-3.4-2.38-5.635-2.38c-2.331,0-4.177,0.826-5.731,2.38c-1.651,1.604-2.429,3.498-2.38,5.732
	c-0.049,2.234,0.729,4.129,2.38,5.731c1.555,1.555,3.4,2.38,5.731,2.38c2.234,0,4.081-0.825,5.635-2.38
	C420.37,546.456,421.099,544.562,421.147,542.327z"/>
<path fill-rule="evenodd" fill="#FFFFFF" d="M281.45,625.728c-1.603,1.555-2.429,3.4-2.38,5.635
	c-0.049,2.234,0.777,4.177,2.38,5.731c1.554,1.651,3.448,2.38,5.731,2.38c2.234,0,4.129-0.729,5.683-2.38
	c1.603-1.555,2.332-3.497,2.429-5.731c-0.097-2.234-0.826-4.08-2.429-5.635c-1.554-1.651-3.449-2.429-5.683-2.429
	C284.898,623.299,283.004,624.076,281.45,625.728z"/>
<path fill-rule="evenodd" fill="#FFFFFF" d="M526.601,500.554c-1.603,1.651-2.429,3.497-2.331,5.731
	c-0.098,2.234,0.729,4.129,2.331,5.731c1.555,1.555,3.449,2.38,5.731,2.38c2.234,0,4.129-0.825,5.684-2.38
	c1.603-1.603,2.38-3.497,2.429-5.731c-0.049-2.234-0.826-4.08-2.429-5.731c-1.555-1.555-3.449-2.332-5.684-2.332
	C530.05,498.222,528.155,498.999,526.601,500.554z"/>
<path fill-rule="evenodd" fill="#FFFFFF" d="M623.165,500.554c-1.651-1.555-3.497-2.332-5.731-2.332s-4.129,0.777-5.732,2.332
	c-1.554,1.651-2.38,3.497-2.38,5.731s0.826,4.129,2.38,5.731c1.604,1.555,3.498,2.38,5.732,2.38s4.08-0.825,5.731-2.38
	c1.555-1.603,2.331-3.497,2.331-5.731S624.72,502.205,623.165,500.554z"/>
<path fill-rule="evenodd" fill="#FFFFFF" d="M153.07,500.554c-1.603-1.555-3.497-2.332-5.731-2.332s-4.129,0.777-5.732,2.332
	c-1.554,1.651-2.38,3.497-2.38,5.731s0.826,4.129,2.38,5.731c1.603,1.555,3.498,2.38,5.732,2.38s4.128-0.825,5.731-2.38
	c1.555-1.603,2.38-3.497,2.38-5.731S154.625,502.205,153.07,500.554z"/>
<path fill-rule="evenodd" fill="#FFFFFF" d="M141.606,401.124c-1.554,1.554-2.38,3.449-2.38,5.683c0,2.283,0.826,4.177,2.38,5.731
	c1.603,1.603,3.498,2.332,5.732,2.332s4.128-0.729,5.731-2.332c1.555-1.554,2.38-3.449,2.38-5.731c0-2.234-0.826-4.129-2.38-5.683
	c-1.603-1.603-3.497-2.429-5.731-2.429S143.209,399.521,141.606,401.124z"/>
<path fill-rule="evenodd" fill="#FFFFFF" d="M140.587,295.622c-2.235,0-4.129,0.777-5.732,2.429c-1.554,1.554-2.38,3.448-2.38,5.634
	c0,2.234,0.826,4.226,2.38,5.78c1.603,1.603,3.497,2.332,5.732,2.332c2.234,0,4.128-0.729,5.731-2.332
	c1.554-1.554,2.38-3.546,2.38-5.78c0-2.186-0.826-4.081-2.38-5.634C144.715,296.399,142.821,295.622,140.587,295.622z"/>
<path fill-rule="evenodd" fill="#FFFFFF" d="M220.199,295.622c-2.234,0-4.129,0.777-5.732,2.429c-1.554,1.554-2.38,3.448-2.38,5.634
	c0,2.234,0.826,4.226,2.38,5.78c1.603,1.603,3.498,2.332,5.732,2.332c2.283,0,4.177-0.729,5.731-2.332
	c1.603-1.554,2.38-3.546,2.38-5.78c0-2.186-0.777-4.081-2.38-5.634C224.376,296.399,222.481,295.622,220.199,295.622z"/>
<path fill-rule="evenodd" fill="#FFFFFF" d="M413.084,648.314c-2.331,0-4.177,0.825-5.731,2.429
	c-1.651,1.554-2.429,3.448-2.38,5.683c-0.049,2.186,0.729,4.178,2.38,5.732c1.555,1.603,3.4,2.331,5.731,2.331
	c2.234,0,4.081-0.729,5.635-2.331c1.651-1.555,2.38-3.547,2.429-5.732c-0.049-2.234-0.777-4.129-2.429-5.683
	C417.165,649.14,415.318,648.314,413.084,648.314z"/>
<path fill-rule="evenodd" fill="none" stroke="#58585A" stroke-width="2.6986" stroke-linecap="round" stroke-linejoin="round" stroke-miterlimit="22.9256" d="
	M220.199,207.46c-2.234,0-4.129,0.777-5.732,2.429c-1.554,1.506-2.38,3.4-2.38,5.635s0.826,4.177,2.38,5.732
	c1.603,1.651,3.498,2.38,5.732,2.38c2.283,0,4.177-0.729,5.731-2.38c1.603-1.555,2.38-3.498,2.38-5.732s-0.777-4.129-2.38-5.635
	C224.376,208.238,222.481,207.46,220.199,207.46"/>
<path fill-rule="evenodd" fill="none" stroke="#58585A" stroke-width="2.6986" stroke-linecap="round" stroke-linejoin="round" stroke-miterlimit="22.9256" d="
	M214.467,298.051c-1.554,1.554-2.38,3.448-2.38,5.634c0,2.234,0.826,4.226,2.38,5.78c1.603,1.603,3.498,2.332,5.732,2.332
	c2.283,0,4.177-0.729,5.731-2.332c1.603-1.554,2.38-3.546,2.38-5.78c0-2.186-0.777-4.081-2.38-5.634
	c-1.554-1.652-3.449-2.429-5.731-2.429C217.964,295.622,216.07,296.399,214.467,298.051"/>
<path fill-rule="evenodd" fill="none" stroke="#58585A" stroke-width="2.6986" stroke-linecap="round" stroke-linejoin="round" stroke-miterlimit="22.9256" d="
	M404.973,190.557c-0.049,2.234,0.729,4.177,2.38,5.731c1.555,1.651,3.4,2.38,5.731,2.38c2.234,0,4.081-0.729,5.635-2.38
	c1.651-1.554,2.38-3.497,2.429-5.731c-0.049-2.234-0.777-4.081-2.429-5.634c-1.554-1.652-3.4-2.429-5.635-2.429
	c-2.331,0-4.177,0.777-5.731,2.429C405.701,186.477,404.924,188.323,404.973,190.557"/>
<path fill-rule="evenodd" fill="none" stroke="#58585A" stroke-width="2.6986" stroke-linecap="round" stroke-linejoin="round" stroke-miterlimit="22.9256" d="
	M346.345,295.622c-2.283,0-4.178,0.777-5.732,2.429c-1.603,1.554-2.429,3.448-2.38,5.634c-0.049,2.234,0.777,4.226,2.38,5.78
	c1.555,1.603,3.449,2.332,5.732,2.332c2.233,0,4.128-0.729,5.683-2.332c1.603-1.554,2.331-3.546,2.429-5.78
	c-0.098-2.186-0.826-4.081-2.429-5.634C350.473,296.399,348.578,295.622,346.345,295.622"/>
<path fill-rule="evenodd" fill="none" stroke="#58585A" stroke-width="2.6986" stroke-linecap="round" stroke-linejoin="round" stroke-miterlimit="22.9256" d="
	M404.973,303.685c-0.049,2.234,0.729,4.226,2.38,5.78c1.555,1.603,3.4,2.332,5.731,2.332c2.234,0,4.081-0.729,5.635-2.332
	c1.651-1.554,2.38-3.546,2.429-5.78c-0.049-2.186-0.777-4.081-2.429-5.634c-1.554-1.652-3.4-2.429-5.635-2.429
	c-2.331,0-4.177,0.777-5.731,2.429C405.701,299.604,404.924,301.499,404.973,303.685"/>
<path fill-rule="evenodd" fill="none" stroke="#58585A" stroke-width="2.6986" stroke-linecap="round" stroke-linejoin="round" stroke-miterlimit="22.9256" d="
	M479.047,295.622c-2.283,0-4.177,0.777-5.731,2.429c-1.603,1.554-2.429,3.448-2.38,5.634c-0.049,2.234,0.777,4.226,2.38,5.78
	c1.555,1.603,3.448,2.332,5.731,2.332c2.234,0,4.129-0.729,5.684-2.332c1.603-1.554,2.331-3.546,2.429-5.78
	c-0.098-2.186-0.826-4.081-2.429-5.634C483.176,296.399,481.281,295.622,479.047,295.622"/>
<path fill-rule="evenodd" fill="none" stroke="#58585A" stroke-width="2.6986" stroke-linecap="round" stroke-linejoin="round" stroke-miterlimit="22.9256" d="
	M418.719,374.7c-1.554-1.555-3.4-2.38-5.635-2.38c-2.331,0-4.177,0.826-5.731,2.38c-1.651,1.603-2.429,3.497-2.38,5.731
	c-0.049,2.186,0.729,4.08,2.38,5.732c1.555,1.554,3.4,2.332,5.731,2.332c2.234,0,4.081-0.777,5.635-2.332
	c1.651-1.652,2.38-3.546,2.429-5.732C421.099,378.197,420.37,376.302,418.719,374.7"/>
<path fill-rule="evenodd" fill="none" stroke="#58585A" stroke-width="2.6986" stroke-linecap="round" stroke-linejoin="round" stroke-miterlimit="22.9256" d="
	M464.523,399.181c-2.282,0-4.177,0.777-5.731,2.331c-1.603,1.652-2.429,3.546-2.332,5.732c-0.097,2.234,0.729,4.226,2.332,5.732
	c1.555,1.554,3.449,2.38,5.731,2.38c2.234,0,4.129-0.826,5.684-2.38c1.603-1.506,2.38-3.498,2.429-5.732
	c-0.049-2.186-0.826-4.08-2.429-5.732C468.652,399.958,466.758,399.181,464.523,399.181"/>
<path fill-rule="evenodd" fill="none" stroke="#58585A" stroke-width="2.6986" stroke-linecap="round" stroke-linejoin="round" stroke-miterlimit="22.9256" d="
	M524.27,506.285c-0.098,2.234,0.729,4.129,2.331,5.731c1.555,1.555,3.449,2.38,5.731,2.38c2.234,0,4.129-0.825,5.684-2.38
	c1.603-1.603,2.38-3.497,2.429-5.731c-0.049-2.234-0.826-4.08-2.429-5.731c-1.555-1.555-3.449-2.332-5.684-2.332
	c-2.282,0-4.177,0.777-5.731,2.332C524.998,502.205,524.172,504.051,524.27,506.285"/>
<path fill-rule="evenodd" fill="none" stroke="#58585A" stroke-width="2.6986" stroke-linecap="round" stroke-linejoin="round" stroke-miterlimit="22.9256" d="
	M418.719,500.554c-1.554-1.555-3.4-2.332-5.635-2.332c-2.331,0-4.177,0.777-5.731,2.332c-1.651,1.651-2.429,3.497-2.38,5.731
	c-0.049,2.234,0.729,4.129,2.38,5.731c1.555,1.555,3.4,2.38,5.731,2.38c2.234,0,4.081-0.825,5.635-2.38
	c1.651-1.603,2.38-3.497,2.429-5.731C421.099,504.051,420.37,502.205,418.719,500.554"/>
<path fill-rule="evenodd" fill="none" stroke="#58585A" stroke-width="2.6986" stroke-linecap="round" stroke-linejoin="round" stroke-miterlimit="22.9256" d="
	M465.35,498.222c-2.283,0-4.178,0.777-5.732,2.332c-1.603,1.651-2.428,3.497-2.38,5.731c-0.048,2.234,0.777,4.129,2.38,5.731
	c1.555,1.555,3.449,2.38,5.732,2.38c2.234,0,4.129-0.825,5.683-2.38c1.604-1.603,2.332-3.497,2.429-5.731
	c-0.097-2.234-0.825-4.08-2.429-5.731C469.479,498.999,467.584,498.222,465.35,498.222"/>
<path fill-rule="evenodd" fill="none" stroke="#58585A" stroke-width="2.6986" stroke-linecap="round" stroke-linejoin="round" stroke-miterlimit="22.9256" d="
	M418.719,536.595c-1.554-1.554-3.4-2.38-5.635-2.38c-2.331,0-4.177,0.826-5.731,2.38c-1.651,1.604-2.429,3.498-2.38,5.732
	c-0.049,2.234,0.729,4.129,2.38,5.731c1.555,1.555,3.4,2.38,5.731,2.38c2.234,0,4.081-0.825,5.635-2.38
	c1.651-1.603,2.38-3.497,2.429-5.731C421.099,540.093,420.37,538.198,418.719,536.595"/>
<path fill-rule="evenodd" fill="none" stroke="#58585A" stroke-width="2.6986" stroke-linecap="round" stroke-linejoin="round" stroke-miterlimit="22.9256" d="
	M617.434,498.222c-2.234,0-4.129,0.777-5.732,2.332c-1.554,1.651-2.38,3.497-2.38,5.731s0.826,4.129,2.38,5.731
	c1.604,1.555,3.498,2.38,5.732,2.38s4.08-0.825,5.731-2.38c1.555-1.603,2.331-3.497,2.331-5.731s-0.776-4.08-2.331-5.731
	C621.514,498.999,619.668,498.222,617.434,498.222"/>
<path fill-rule="evenodd" fill="none" stroke="#58585A" stroke-width="2.6986" stroke-linecap="round" stroke-linejoin="round" stroke-miterlimit="22.9256" d="
	M234.673,398.695c-2.283,0-4.177,0.826-5.731,2.38c-1.603,1.603-2.429,3.498-2.332,5.732c-0.097,2.234,0.729,4.08,2.332,5.731
	c1.554,1.603,3.449,2.332,5.731,2.332c2.235,0,4.081-0.729,5.683-2.332c1.603-1.651,2.38-3.497,2.429-5.731
	c-0.048-2.234-0.826-4.129-2.429-5.732C238.754,399.521,236.908,398.695,234.673,398.695"/>
<path fill-rule="evenodd" fill="none" stroke="#58585A" stroke-width="2.6986" stroke-linecap="round" stroke-linejoin="round" stroke-miterlimit="22.9256" d="
	M279.07,506.285c-0.049,2.234,0.777,4.129,2.38,5.731c1.554,1.555,3.448,2.38,5.731,2.38c2.234,0,4.129-0.825,5.683-2.38
	c1.603-1.603,2.332-3.497,2.429-5.731c-0.097-2.234-0.826-4.08-2.429-5.731c-1.554-1.555-3.449-2.332-5.683-2.332
	c-2.283,0-4.177,0.777-5.731,2.332C279.847,502.205,279.021,504.051,279.07,506.285"/>
<path fill-rule="evenodd" fill="none" stroke="#58585A" stroke-width="2.6986" stroke-linecap="round" stroke-linejoin="round" stroke-miterlimit="22.9256" d="
	M233.945,498.222c-2.283,0-4.177,0.777-5.731,2.332c-1.603,1.651-2.429,3.497-2.332,5.731c-0.097,2.234,0.729,4.129,2.332,5.731
	c1.554,1.555,3.449,2.38,5.731,2.38c2.235,0,4.129-0.825,5.684-2.38c1.603-1.603,2.331-3.497,2.429-5.731
	c-0.098-2.234-0.826-4.08-2.429-5.731C238.074,498.999,236.18,498.222,233.945,498.222"/>
<path fill-rule="evenodd" fill="none" stroke="#58585A" stroke-width="2.6986" stroke-linecap="round" stroke-linejoin="round" stroke-miterlimit="22.9256" d="
	M287.182,534.215c-2.283,0-4.177,0.826-5.731,2.38c-1.603,1.604-2.429,3.498-2.38,5.732c-0.049,2.234,0.777,4.129,2.38,5.731
	c1.554,1.555,3.448,2.38,5.731,2.38c2.234,0,4.129-0.825,5.683-2.38c1.603-1.603,2.332-3.497,2.429-5.731
	c-0.097-2.234-0.826-4.129-2.429-5.732C291.311,535.041,289.416,534.215,287.182,534.215"/>
<path fill-rule="evenodd" fill="none" stroke="#58585A" stroke-width="2.6986" stroke-linecap="round" stroke-linejoin="round" stroke-miterlimit="22.9256" d="
	M407.353,650.743c-1.651,1.554-2.429,3.448-2.38,5.683c-0.049,2.186,0.729,4.178,2.38,5.732c1.555,1.603,3.4,2.331,5.731,2.331
	c2.234,0,4.081-0.729,5.635-2.331c1.651-1.555,2.38-3.547,2.429-5.732c-0.049-2.234-0.777-4.129-2.429-5.683
	c-1.554-1.604-3.4-2.429-5.635-2.429C410.753,648.314,408.907,649.14,407.353,650.743"/>
<path fill-rule="evenodd" fill="none" stroke="#58585A" stroke-width="2.6986" stroke-linecap="round" stroke-linejoin="round" stroke-miterlimit="22.9256" d="
	M279.07,631.362c-0.049,2.234,0.777,4.177,2.38,5.731c1.554,1.651,3.448,2.38,5.731,2.38c2.234,0,4.129-0.729,5.683-2.38
	c1.603-1.555,2.332-3.497,2.429-5.731c-0.097-2.234-0.826-4.08-2.429-5.635c-1.554-1.651-3.449-2.429-5.683-2.429
	c-2.283,0-4.177,0.777-5.731,2.429C279.847,627.282,279.021,629.128,279.07,631.362"/>
<path fill-rule="evenodd" fill="none" stroke="#58585A" stroke-width="2.6986" stroke-linecap="round" stroke-linejoin="round" stroke-miterlimit="22.9256" d="
	M134.855,298.051c-1.554,1.554-2.38,3.448-2.38,5.634c0,2.234,0.826,4.226,2.38,5.78c1.603,1.603,3.497,2.332,5.732,2.332
	c2.234,0,4.128-0.729,5.731-2.332c1.554-1.554,2.38-3.546,2.38-5.78c0-2.186-0.826-4.081-2.38-5.634
	c-1.603-1.652-3.498-2.429-5.731-2.429C138.352,295.622,136.458,296.399,134.855,298.051"/>
<path fill-rule="evenodd" fill="none" stroke="#58585A" stroke-width="2.6986" stroke-linecap="round" stroke-linejoin="round" stroke-miterlimit="22.9256" d="
	M139.227,406.807c0,2.283,0.826,4.177,2.38,5.731c1.603,1.603,3.498,2.332,5.732,2.332s4.128-0.729,5.731-2.332
	c1.555-1.554,2.38-3.449,2.38-5.731c0-2.234-0.826-4.129-2.38-5.683c-1.603-1.603-3.497-2.429-5.731-2.429s-4.129,0.826-5.732,2.429
	C140.052,402.678,139.227,404.572,139.227,406.807"/>
<path fill-rule="evenodd" fill="none" stroke="#58585A" stroke-width="2.6986" stroke-linecap="round" stroke-linejoin="round" stroke-miterlimit="22.9256" d="
	M147.338,498.222c-2.234,0-4.129,0.777-5.732,2.332c-1.554,1.651-2.38,3.497-2.38,5.731s0.826,4.129,2.38,5.731
	c1.603,1.555,3.498,2.38,5.732,2.38s4.128-0.825,5.731-2.38c1.555-1.603,2.38-3.497,2.38-5.731s-0.826-4.08-2.38-5.731
	C151.467,498.999,149.573,498.222,147.338,498.222"/>
<path fill-rule="evenodd" fill="#FFFFFF" d="M285.384,188.808c-0.486-0.485-1.02-0.68-1.7-0.68c-0.68,0-1.311,0.194-1.749,0.68
	c-0.485,0.486-0.68,1.069-0.68,1.749c0,0.68,0.194,1.214,0.68,1.7c0.438,0.485,1.069,0.729,1.749,0.729
	c0.68,0,1.214-0.243,1.7-0.729c0.437-0.486,0.729-1.021,0.729-1.7C286.113,189.877,285.821,189.294,285.384,188.808z"/>
<path fill-rule="evenodd" fill="#FFFFFF" d="M241.085,190.557c0-0.68-0.243-1.263-0.729-1.749c-0.485-0.485-1.02-0.68-1.7-0.68
	c-0.631,0-1.263,0.194-1.749,0.68c-0.438,0.486-0.68,1.069-0.68,1.749c0,0.68,0.243,1.214,0.68,1.7
	c0.485,0.485,1.117,0.729,1.749,0.729c0.68,0,1.214-0.243,1.7-0.729C240.842,191.771,241.085,191.237,241.085,190.557z"/>
<path fill-rule="evenodd" fill="#FFFFFF" d="M259.641,301.208c-0.68,0-1.263,0.194-1.749,0.68c-0.437,0.485-0.68,1.069-0.68,1.749
	c0,0.68,0.243,1.214,0.68,1.7c0.486,0.486,1.069,0.729,1.749,0.729c0.68,0,1.214-0.243,1.7-0.729c0.486-0.486,0.729-1.02,0.729-1.7
	c0-0.68-0.243-1.263-0.729-1.749C260.855,301.402,260.32,301.208,259.641,301.208z"/>
<path fill-rule="evenodd" fill="#FFFFFF" d="M289.027,301.208c-0.68,0-1.312,0.194-1.797,0.68c-0.437,0.485-0.631,1.069-0.631,1.749
	c0,0.68,0.194,1.214,0.631,1.7c0.486,0.486,1.118,0.729,1.797,0.729c0.631,0,1.214-0.243,1.652-0.729
	c0.485-0.486,0.777-1.02,0.777-1.7c0-0.68-0.292-1.263-0.777-1.749C290.242,301.402,289.659,301.208,289.027,301.208z"/>
<path fill-rule="evenodd" fill="#FFFFFF" d="M317.88,301.208c-0.68,0-1.263,0.194-1.748,0.68c-0.486,0.485-0.681,1.069-0.681,1.749
	c0,0.68,0.194,1.214,0.681,1.7c0.485,0.486,1.068,0.729,1.748,0.729c0.681,0,1.215-0.243,1.7-0.729
	c0.438-0.486,0.729-1.02,0.729-1.7c0-0.68-0.291-1.263-0.729-1.749C319.095,301.402,318.561,301.208,317.88,301.208z"/>
<path fill-rule="evenodd" fill="#FFFFFF" d="M379.86,301.208c-0.681,0-1.264,0.194-1.749,0.68c-0.438,0.485-0.68,1.069-0.68,1.749
	c0,0.68,0.242,1.214,0.68,1.7c0.485,0.486,1.068,0.729,1.749,0.729c0.68,0,1.214-0.243,1.699-0.729
	c0.486-0.486,0.729-1.02,0.729-1.7c0-0.68-0.243-1.263-0.729-1.749C381.074,301.402,380.54,301.208,379.86,301.208z"/>
<path fill-rule="evenodd" fill="#FFFFFF" d="M333.473,188.808c-0.486-0.485-1.021-0.68-1.7-0.68c-0.681,0-1.264,0.194-1.749,0.68
	c-0.485,0.486-0.68,1.069-0.68,1.749c0,0.68,0.194,1.214,0.68,1.7c0.485,0.485,1.068,0.729,1.749,0.729
	c0.68,0,1.214-0.243,1.7-0.729c0.485-0.486,0.729-1.021,0.729-1.7C334.201,189.877,333.958,189.294,333.473,188.808z"/>
<path fill-rule="evenodd" fill="#FFFFFF" d="M269.355,378.731c-0.437-0.534-1.068-0.729-1.749-0.729s-1.214,0.194-1.651,0.729
	c-0.486,0.389-0.777,1.02-0.777,1.7s0.292,1.214,0.777,1.651c0.437,0.486,0.971,0.777,1.651,0.777s1.312-0.292,1.749-0.777
	c0.486-0.437,0.68-0.971,0.68-1.651S269.841,379.12,269.355,378.731z"/>
<path fill-rule="evenodd" fill="#FFFFFF" d="M321.912,378.731c-0.438-0.534-1.069-0.729-1.749-0.729s-1.215,0.194-1.7,0.729
	c-0.437,0.389-0.729,1.02-0.729,1.7s0.292,1.214,0.729,1.651c0.485,0.486,1.021,0.777,1.7,0.777s1.312-0.292,1.749-0.777
	c0.485-0.437,0.68-0.971,0.68-1.651S322.397,379.12,321.912,378.731z"/>
<path fill-rule="evenodd" fill="#FFFFFF" d="M372.331,378.731c-0.485-0.534-1.068-0.729-1.748-0.729
	c-0.681,0-1.215,0.194-1.701,0.729c-0.485,0.389-0.729,1.02-0.729,1.7s0.243,1.214,0.729,1.651c0.486,0.486,1.021,0.777,1.701,0.777
	c0.68,0,1.263-0.292,1.748-0.777c0.485-0.437,0.68-0.971,0.68-1.651S372.816,379.12,372.331,378.731z"/>
<path fill-rule="evenodd" fill="#FFFFFF" d="M327.935,540.578c-0.485-0.485-1.068-0.68-1.748-0.68c-0.681,0-1.215,0.194-1.7,0.68
	c-0.486,0.485-0.729,1.068-0.729,1.749c0,0.68,0.242,1.214,0.729,1.699c0.485,0.438,1.02,0.729,1.7,0.729
	c0.68,0,1.263-0.291,1.748-0.729c0.486-0.485,0.681-1.02,0.681-1.699C328.615,541.646,328.421,541.063,327.935,540.578z"/>
<path fill-rule="evenodd" fill="#FFFFFF" d="M356.594,540.578c-0.486-0.485-1.021-0.68-1.7-0.68c-0.632,0-1.264,0.194-1.749,0.68
	c-0.438,0.485-0.68,1.068-0.68,1.749c0,0.68,0.242,1.214,0.68,1.699c0.485,0.438,1.117,0.729,1.749,0.729
	c0.68,0,1.214-0.291,1.7-0.729c0.485-0.485,0.729-1.02,0.729-1.699C357.322,541.646,357.079,541.063,356.594,540.578z"/>
<path fill-rule="evenodd" fill="#FFFFFF" d="M322.786,504.536c-0.438-0.485-0.972-0.68-1.651-0.68c-0.681,0-1.312,0.194-1.749,0.68
	c-0.485,0.486-0.68,1.069-0.68,1.749s0.194,1.215,0.68,1.7c0.438,0.485,1.068,0.729,1.749,0.729c0.68,0,1.214-0.243,1.651-0.729
	c0.485-0.485,0.777-1.021,0.777-1.7S323.271,505.022,322.786,504.536z"/>
<path fill-rule="evenodd" fill="#FFFFFF" d="M351.833,504.536c-0.485-0.485-1.117-0.68-1.797-0.68c-0.632,0-1.215,0.194-1.651,0.68
	c-0.486,0.486-0.777,1.069-0.777,1.749s0.291,1.215,0.777,1.7c0.437,0.485,1.02,0.729,1.651,0.729c0.68,0,1.312-0.243,1.797-0.729
	c0.438-0.485,0.632-1.021,0.632-1.7S352.271,505.022,351.833,504.536z"/>
<path fill-rule="evenodd" fill="#FFFFFF" d="M377.868,504.536c-0.485-0.485-1.02-0.68-1.699-0.68c-0.681,0-1.264,0.194-1.749,0.68
	c-0.486,0.486-0.68,1.069-0.68,1.749s0.193,1.215,0.68,1.7c0.485,0.485,1.068,0.729,1.749,0.729c0.68,0,1.214-0.243,1.699-0.729
	c0.438-0.485,0.729-1.021,0.729-1.7S378.306,505.022,377.868,504.536z"/>
<path fill-rule="evenodd" fill="#FFFFFF" d="M184.352,302.033c-0.438-0.485-1.069-0.777-1.749-0.777
	c-0.68,0-1.214,0.292-1.651,0.777c-0.583,0.438-0.777,1.02-0.777,1.652c0,0.68,0.195,1.312,0.777,1.797
	c0.437,0.437,0.972,0.632,1.651,0.632c0.68,0,1.312-0.195,1.749-0.632c0.437-0.485,0.68-1.117,0.68-1.797
	C185.031,303.053,184.789,302.471,184.352,302.033z"/>
<path fill-rule="evenodd" fill="#FFFFFF" d="M101.534,302.033c-0.486-0.485-1.021-0.777-1.7-0.777c-0.68,0-1.263,0.292-1.749,0.777
	c-0.485,0.438-0.68,1.02-0.68,1.652c0,0.68,0.194,1.312,0.68,1.797c0.486,0.437,1.069,0.632,1.749,0.632
	c0.68,0,1.214-0.195,1.7-0.632c0.485-0.485,0.729-1.117,0.729-1.797C102.262,303.053,102.019,302.471,101.534,302.033z"/>
<path fill-rule="evenodd" fill="#FFFFFF" d="M60.78,302.033c-0.486-0.485-1.068-0.777-1.749-0.777s-1.214,0.292-1.7,0.777
	c-0.485,0.438-0.729,1.02-0.729,1.652c0,0.68,0.243,1.312,0.729,1.797c0.486,0.437,1.02,0.632,1.7,0.632s1.263-0.195,1.749-0.632
	c0.486-0.485,0.68-1.117,0.68-1.797C61.46,303.053,61.266,302.471,60.78,302.033z"/>
<path fill-rule="evenodd" fill="#FFFFFF" d="M58.06,215.281c-0.437-0.486-1.068-0.777-1.749-0.777c-0.68,0-1.214,0.292-1.651,0.777
	c-0.486,0.437-0.777,0.971-0.777,1.651s0.292,1.312,0.777,1.749c0.437,0.486,0.972,0.68,1.651,0.68c0.68,0,1.312-0.194,1.749-0.68
	c0.486-0.437,0.68-1.068,0.68-1.749S58.546,215.718,58.06,215.281z"/>
<path fill-rule="evenodd" fill="#FFFFFF" d="M84.679,214.504c-0.68,0-1.215,0.292-1.7,0.777c-0.486,0.437-0.729,0.971-0.729,1.651
	s0.243,1.312,0.729,1.749c0.485,0.486,1.02,0.68,1.7,0.68c0.631,0,1.263-0.194,1.749-0.68c0.437-0.437,0.68-1.068,0.68-1.749
	s-0.243-1.214-0.68-1.651C85.941,214.795,85.31,214.504,84.679,214.504z"/>
<path fill-rule="evenodd" fill="#FFFFFF" d="M205.335,503.856c-0.68,0-1.214,0.194-1.651,0.68c-0.486,0.486-0.777,1.069-0.777,1.749
	s0.292,1.215,0.777,1.7c0.437,0.485,0.972,0.729,1.651,0.729c0.68,0,1.312-0.243,1.7-0.729c0.534-0.485,0.729-1.021,0.729-1.7
	s-0.194-1.263-0.729-1.749C206.647,504.051,206.015,503.856,205.335,503.856z"/>
<path fill-rule="evenodd" fill="#FFFFFF" d="M178.085,503.856c-0.68,0-1.214,0.194-1.749,0.68c-0.389,0.486-0.68,1.069-0.68,1.749
	s0.292,1.215,0.68,1.7c0.534,0.485,1.068,0.729,1.749,0.729s1.312-0.243,1.749-0.729c0.486-0.485,0.68-1.021,0.68-1.7
	s-0.194-1.263-0.68-1.749C179.397,504.051,178.766,503.856,178.085,503.856z"/>
<path fill-rule="evenodd" fill="#FFFFFF" d="M86.961,503.856c-0.68,0-1.214,0.194-1.7,0.68c-0.485,0.486-0.729,1.069-0.729,1.749
	s0.243,1.215,0.729,1.7c0.486,0.485,1.02,0.729,1.7,0.729s1.263-0.243,1.749-0.729s0.68-1.021,0.68-1.7s-0.194-1.263-0.68-1.749
	C88.224,504.051,87.642,503.856,86.961,503.856z"/>
<path fill-rule="evenodd" fill="#FFFFFF" d="M59.226,503.856c-0.68,0-1.214,0.194-1.7,0.68c-0.438,0.486-0.729,1.069-0.729,1.749
	s0.291,1.215,0.729,1.7c0.486,0.485,1.02,0.729,1.7,0.729c0.68,0,1.263-0.243,1.749-0.729c0.485-0.485,0.68-1.021,0.68-1.7
	s-0.195-1.263-0.68-1.749C60.489,504.051,59.906,503.856,59.226,503.856z"/>
<path fill-rule="evenodd" fill="#FFFFFF" d="M31.005,503.856c-0.632,0-1.263,0.194-1.749,0.68c-0.437,0.486-0.68,1.069-0.68,1.749
	s0.243,1.215,0.68,1.7c0.486,0.485,1.117,0.729,1.749,0.729c0.68,0,1.214-0.243,1.7-0.729c0.486-0.485,0.729-1.021,0.729-1.7
	s-0.243-1.263-0.729-1.749C32.219,504.051,31.685,503.856,31.005,503.856z"/>
<path fill-rule="evenodd" fill="#FFFFFF" d="M2.832,503.856c-0.68,0-1.312,0.194-1.749,0.68c-0.486,0.486-0.68,1.069-0.68,1.749
	s0.194,1.215,0.68,1.7c0.437,0.485,1.068,0.729,1.749,0.729s1.214-0.243,1.7-0.729c0.437-0.485,0.631-1.021,0.631-1.7
	s-0.194-1.263-0.631-1.749C4.046,504.051,3.512,503.856,2.832,503.856z"/>
<path fill-rule="evenodd" fill="#FFFFFF" d="M-24.515,503.856c-0.68,0-1.214,0.194-1.651,0.68c-0.486,0.486-0.777,1.069-0.777,1.749
	s0.291,1.215,0.777,1.7c0.437,0.485,0.972,0.729,1.651,0.729c0.68,0,1.312-0.243,1.749-0.729c0.486-0.485,0.68-1.021,0.68-1.7
	s-0.194-1.263-0.68-1.749C-23.203,504.051-23.835,503.856-24.515,503.856z"/>
<path fill-rule="evenodd" fill="#FFFFFF" d="M-53.659,503.954c-0.68,0-1.263,0.193-1.749,0.68c-0.437,0.438-0.68,1.068-0.68,1.749
	c0,0.68,0.243,1.214,0.68,1.651c0.486,0.485,1.069,0.776,1.749,0.776c0.68,0,1.214-0.291,1.7-0.776
	c0.486-0.438,0.729-0.972,0.729-1.651c0-0.681-0.243-1.312-0.729-1.749C-52.445,504.147-52.979,503.954-53.659,503.954z"/>
<path fill-rule="evenodd" fill="#FFFFFF" d="M-80.569,479.375c-0.68,0-1.214,0.195-1.7,0.681c-0.438,0.485-0.729,1.068-0.729,1.748
	c0,0.681,0.291,1.215,0.729,1.7c0.485,0.486,1.02,0.729,1.7,0.729s1.312-0.242,1.7-0.729c0.534-0.485,0.729-1.02,0.729-1.7
	c0-0.68-0.194-1.263-0.729-1.748C-79.257,479.57-79.889,479.375-80.569,479.375z"/>
<path fill-rule="evenodd" fill="#FFFFFF" d="M147.338,544.95c-0.68,0-1.312,0.291-1.749,0.729c-0.486,0.485-0.68,1.02-0.68,1.7
	c0,0.68,0.194,1.311,0.68,1.748c0.437,0.486,1.068,0.68,1.749,0.68s1.214-0.193,1.7-0.68c0.437-0.438,0.729-1.068,0.729-1.748
	c0-0.681-0.292-1.215-0.729-1.7C148.553,545.241,148.019,544.95,147.338,544.95z"/>
<path fill-rule="evenodd" fill="#FFFFFF" d="M495.999,503.856c-0.68,0-1.312,0.194-1.748,0.68c-0.486,0.486-0.681,1.069-0.681,1.749
	s0.194,1.215,0.681,1.7c0.437,0.485,1.068,0.729,1.748,0.729c0.681,0,1.215-0.243,1.651-0.729c0.486-0.485,0.777-1.021,0.777-1.7
	s-0.291-1.263-0.777-1.749C497.214,504.051,496.68,503.856,495.999,503.856z"/>
<path fill-rule="evenodd" fill="#FFFFFF" d="M562.496,503.856c-0.68,0-1.214,0.194-1.7,0.68c-0.437,0.486-0.729,1.069-0.729,1.749
	s0.292,1.215,0.729,1.7c0.486,0.485,1.021,0.729,1.7,0.729c0.681,0,1.313-0.243,1.749-0.729c0.485-0.485,0.681-1.021,0.681-1.7
	s-0.195-1.263-0.681-1.749C563.809,504.051,563.177,503.856,562.496,503.856z"/>
<path fill-rule="evenodd" fill="#FFFFFF" d="M589.018,507.985c0.485,0.485,1.069,0.729,1.749,0.729s1.214-0.243,1.7-0.729
	c0.485-0.485,0.729-1.021,0.729-1.7s-0.243-1.263-0.729-1.749c-0.486-0.485-1.021-0.68-1.7-0.68s-1.264,0.194-1.749,0.68
	c-0.485,0.486-0.68,1.069-0.68,1.749S588.532,507.5,589.018,507.985z"/>
<path fill-rule="evenodd" fill="#FFFFFF" d="M643.469,503.856c-0.68,0-1.312,0.194-1.749,0.68c-0.485,0.486-0.68,1.069-0.68,1.749
	s0.194,1.215,0.68,1.7c0.438,0.485,1.069,0.729,1.749,0.729s1.214-0.243,1.7-0.729c0.437-0.485,0.729-1.021,0.729-1.7
	s-0.292-1.263-0.729-1.749C644.683,504.051,644.148,503.856,643.469,503.856z"/>
<path fill-rule="evenodd" fill="#FFFFFF" d="M667.561,503.856c-0.68,0-1.311,0.194-1.748,0.68c-0.486,0.486-0.68,1.069-0.68,1.749
	s0.193,1.215,0.68,1.7c0.438,0.485,1.068,0.729,1.748,0.729c0.681,0,1.215-0.243,1.652-0.729c0.485-0.485,0.776-1.021,0.776-1.7
	s-0.291-1.263-0.776-1.749C668.775,504.051,668.241,503.856,667.561,503.856z"/>
<path fill-rule="evenodd" fill="#FFFFFF" d="M692.042,508.714c0.681,0,1.264-0.243,1.749-0.729s0.68-1.021,0.68-1.7
	s-0.194-1.263-0.68-1.749c-0.485-0.485-1.068-0.68-1.749-0.68c-0.68,0-1.214,0.194-1.7,0.68c-0.485,0.486-0.729,1.069-0.729,1.749
	s0.243,1.215,0.729,1.7C690.828,508.471,691.362,508.714,692.042,508.714z"/>
<path fill-rule="evenodd" fill="#FFFFFF" d="M717.009,503.856c-0.68,0-1.312,0.194-1.748,0.68c-0.486,0.486-0.681,1.069-0.681,1.749
	s0.194,1.215,0.681,1.7c0.437,0.485,1.068,0.729,1.748,0.729c0.681,0,1.215-0.243,1.651-0.729c0.486-0.485,0.777-1.021,0.777-1.7
	s-0.291-1.263-0.777-1.749C718.224,504.051,717.689,503.856,717.009,503.856z"/>
<path fill-rule="evenodd" fill="#FFFFFF" d="M742.559,504.391c-0.68,0-1.263,0.243-1.749,0.681c-0.485,0.485-0.68,1.117-0.68,1.748
	c0,0.681,0.194,1.215,0.68,1.7c0.486,0.486,1.069,0.729,1.749,0.729s1.215-0.242,1.7-0.729c0.485-0.485,0.729-1.02,0.729-1.7
	c0-0.631-0.243-1.263-0.729-1.748C743.773,504.634,743.238,504.391,742.559,504.391z"/>
<path fill-rule="evenodd" fill="#FFFFFF" d="M750.477,520.76c-0.681,0-1.215,0.243-1.7,0.729c-0.486,0.486-0.729,1.021-0.729,1.7
	c0,0.632,0.242,1.263,0.729,1.749c0.485,0.438,1.02,0.631,1.7,0.631c0.631,0,1.263-0.193,1.748-0.631
	c0.438-0.486,0.68-1.117,0.68-1.749c0-0.68-0.242-1.214-0.68-1.7C751.739,521.003,751.107,520.76,750.477,520.76z"/>
<path fill-rule="evenodd" fill="#FFFFFF" d="M759.074,539.072c-0.681,0-1.264,0.194-1.749,0.681c-0.438,0.485-0.68,1.068-0.68,1.748
	s0.242,1.214,0.68,1.7c0.485,0.486,1.068,0.729,1.749,0.729c0.68,0,1.214-0.242,1.699-0.729c0.486-0.486,0.729-1.021,0.729-1.7
	s-0.242-1.263-0.729-1.748C760.288,539.267,759.754,539.072,759.074,539.072z"/>
<path fill-rule="evenodd" fill="#FFFFFF" d="M768.352,558.696c-0.681,0-1.312,0.291-1.749,0.776c-0.485,0.438-0.68,1.021-0.68,1.652
	c0,0.68,0.194,1.312,0.68,1.797c0.438,0.438,1.068,0.632,1.749,0.632c0.68,0,1.214-0.194,1.651-0.632
	c0.485-0.485,0.776-1.117,0.776-1.797c0-0.632-0.291-1.215-0.776-1.652C769.565,558.987,769.031,558.696,768.352,558.696z"/>
<path fill-rule="evenodd" fill="#FFFFFF" d="M777.386,578.028c-0.68,0-1.312,0.194-1.748,0.68c-0.486,0.535-0.681,1.069-0.681,1.749
	s0.194,1.214,0.681,1.651c0.437,0.485,1.068,0.777,1.748,0.777c0.681,0,1.215-0.292,1.651-0.777
	c0.486-0.438,0.777-0.972,0.777-1.651s-0.291-1.214-0.777-1.749C778.601,578.223,778.066,578.028,777.386,578.028z"/>
<path fill-rule="evenodd" fill="#FFFFFF" d="M786.323,597.118c-0.631,0-1.263,0.193-1.748,0.68
	c-0.438,0.438-0.681,1.068-0.681,1.749c0,0.68,0.243,1.263,0.681,1.651c0.485,0.485,1.117,0.777,1.748,0.777
	c0.681,0,1.215-0.292,1.7-0.777c0.486-0.389,0.729-0.972,0.729-1.651c0-0.681-0.242-1.312-0.729-1.749
	C787.538,597.312,787.004,597.118,786.323,597.118z"/>
<path fill-rule="evenodd" fill="#FFFFFF" d="M796.718,619.219c-0.68,0-1.214,0.291-1.651,0.777
	c-0.485,0.437-0.777,0.972-0.777,1.651s0.292,1.312,0.777,1.749c0.438,0.485,0.972,0.68,1.651,0.68c0.681,0,1.312-0.194,1.749-0.68
	c0.485-0.438,0.68-1.069,0.68-1.749s-0.194-1.215-0.68-1.651C798.029,619.51,797.398,619.219,796.718,619.219z"/>
<path fill-rule="evenodd" fill="#FFFFFF" d="M111.054,214.504c-0.68,0-1.312,0.292-1.749,0.777c-0.486,0.437-0.68,0.971-0.68,1.651
	s0.194,1.312,0.68,1.749c0.437,0.486,1.069,0.68,1.749,0.68c0.68,0,1.214-0.194,1.651-0.68c0.485-0.437,0.777-1.068,0.777-1.749
	s-0.292-1.214-0.777-1.651C112.269,214.795,111.734,214.504,111.054,214.504z"/>
<path fill-rule="evenodd" fill="#FFFFFF" d="M115.474,504.536c-0.194-0.193-0.535-0.389-0.777-0.534
	c-0.292-0.048-0.631-0.146-0.874-0.146c-0.68,0-1.312,0.194-1.797,0.68c-0.437,0.486-0.631,1.069-0.631,1.749s0.194,1.215,0.631,1.7
	c0.486,0.485,1.117,0.729,1.797,0.729c0.243,0,0.583-0.049,0.874-0.097c0.243-0.146,0.583-0.341,0.777-0.632
	c0.486-0.485,0.777-1.021,0.777-1.7S115.96,505.022,115.474,504.536z"/>
<path fill-rule="evenodd" fill="#FFFFFF" d="M149.039,434.833c-0.243-0.193-0.583-0.388-0.826-0.437
	c-0.292-0.146-0.632-0.194-0.875-0.194c-0.68,0-1.312,0.194-1.749,0.631c-0.486,0.583-0.68,1.117-0.68,1.798
	c0,0.631,0.194,1.214,0.68,1.651c0.437,0.485,1.068,0.777,1.749,0.777c0.243,0,0.583-0.098,0.875-0.146
	c0.243-0.146,0.583-0.34,0.826-0.632c0.437-0.438,0.729-1.021,0.729-1.651C149.767,435.95,149.476,435.416,149.039,434.833z"/>
<path fill-rule="evenodd" fill="#FFFFFF" d="M149.039,466.115c-0.243-0.292-0.583-0.486-0.826-0.583
	c-0.292-0.098-0.632-0.194-0.875-0.194c-0.68,0-1.312,0.291-1.749,0.777c-0.486,0.437-0.68,0.971-0.68,1.651
	c0,0.68,0.194,1.312,0.68,1.748c0.437,0.486,1.068,0.681,1.749,0.681c0.243,0,0.583,0,0.875-0.146
	c0.243-0.098,0.583-0.292,0.826-0.535c0.437-0.437,0.729-1.068,0.729-1.748C149.767,467.086,149.476,466.552,149.039,466.115z"/>
<path fill-rule="evenodd" fill="#FFFFFF" d="M235.645,430.996c-0.292-0.243-0.631-0.437-0.875-0.534
	c-0.291-0.146-0.534-0.146-0.874-0.146c-0.68,0-1.214,0.243-1.7,0.68c-0.534,0.486-0.729,1.02-0.729,1.7
	c0,0.68,0.194,1.263,0.729,1.749c0.486,0.485,1.02,0.68,1.7,0.68c0.34,0,0.583,0,0.874-0.049c0.243-0.243,0.583-0.34,0.875-0.631
	c0.389-0.486,0.68-1.069,0.68-1.749C236.325,432.016,236.034,431.482,235.645,430.996z"/>
<path fill-rule="evenodd" fill="#FFFFFF" d="M234.771,459.946c-0.291-0.146-0.534-0.194-0.874-0.194c-0.68,0-1.214,0.291-1.7,0.729
	c-0.534,0.485-0.729,1.02-0.729,1.7c0,0.68,0.194,1.263,0.729,1.748c0.486,0.486,1.02,0.681,1.7,0.681c0.34,0,0.583,0,0.874-0.146
	c0.243-0.146,0.583-0.341,0.875-0.535c0.389-0.485,0.68-1.068,0.68-1.748c0-0.681-0.292-1.215-0.68-1.7
	C235.354,460.237,235.014,460.043,234.771,459.946z"/>
<path fill-rule="evenodd" fill="#FFFFFF" d="M287.133,425.604c-0.68,0-1.214,0.291-1.7,0.729c-0.486,0.485-0.729,1.021-0.729,1.7
	s0.243,1.312,0.729,1.749c0.486,0.485,1.02,0.68,1.7,0.68c0.34,0,0.583,0,0.874-0.146c0.34-0.098,0.583-0.341,0.875-0.534
	c0.437-0.438,0.68-1.069,0.68-1.749s-0.243-1.215-0.68-1.7c-0.292-0.243-0.534-0.389-0.875-0.534
	C287.716,425.701,287.473,425.604,287.133,425.604z"/>
<path fill-rule="evenodd" fill="#FFFFFF" d="M288.007,445.229c-0.292-0.098-0.534-0.194-0.874-0.194c-0.68,0-1.214,0.291-1.7,0.729
	c-0.486,0.485-0.729,1.02-0.729,1.7c0,0.68,0.243,1.312,0.729,1.748c0.486,0.486,1.02,0.681,1.7,0.681c0.34,0,0.583,0,0.874-0.146
	c0.34-0.098,0.583-0.341,0.875-0.535c0.437-0.437,0.68-1.068,0.68-1.748c0-0.681-0.243-1.215-0.68-1.7
	C288.59,445.52,288.348,445.325,288.007,445.229z"/>
<path fill-rule="evenodd" fill="#FFFFFF" d="M288.882,466.115c-0.292-0.292-0.534-0.486-0.875-0.583
	c-0.292-0.098-0.534-0.194-0.874-0.194c-0.68,0-1.214,0.291-1.7,0.777c-0.486,0.437-0.729,0.971-0.729,1.651
	c0,0.68,0.243,1.312,0.729,1.748c0.486,0.486,1.02,0.681,1.7,0.681c0.34,0,0.583,0,0.874-0.146c0.34-0.098,0.583-0.292,0.875-0.535
	c0.437-0.437,0.68-1.068,0.68-1.748C289.562,467.086,289.319,466.552,288.882,466.115z"/>
<path fill-rule="evenodd" fill="#FFFFFF" d="M288.882,575.114c0.437-0.486,0.68-1.021,0.68-1.7s-0.243-1.263-0.68-1.749
	c-0.292-0.194-0.534-0.389-0.875-0.534c-0.292-0.049-0.534-0.146-0.874-0.146c-0.68,0-1.214,0.194-1.7,0.68
	c-0.486,0.486-0.729,1.069-0.729,1.749s0.243,1.214,0.729,1.7c0.486,0.485,1.02,0.729,1.7,0.729c0.34,0,0.583-0.049,0.874-0.146
	C288.348,575.6,288.59,575.405,288.882,575.114z"/>
<path fill-rule="evenodd" fill="#FFFFFF" d="M289.562,593.28c0-0.68-0.243-1.214-0.68-1.797c-0.292-0.194-0.534-0.389-0.875-0.438
	c-0.292-0.146-0.534-0.194-0.874-0.194c-0.68,0-1.214,0.194-1.7,0.632c-0.486,0.583-0.729,1.117-0.729,1.797
	c0,0.632,0.243,1.215,0.729,1.651c0.486,0.486,1.02,0.777,1.7,0.777c0.34,0,0.583-0.097,0.874-0.146
	c0.34-0.146,0.583-0.34,0.875-0.632C289.319,594.495,289.562,593.912,289.562,593.28z"/>
<path fill-rule="evenodd" fill="#FFFFFF" d="M288.007,609.989c-0.292-0.048-0.534-0.194-0.874-0.194c-0.68,0-1.214,0.243-1.7,0.729
	c-0.486,0.486-0.729,1.069-0.729,1.701c0,0.68,0.243,1.263,0.729,1.748s1.02,0.681,1.7,0.681c0.34,0,0.583,0,0.874-0.146
	c0.34-0.146,0.583-0.34,0.875-0.534c0.437-0.485,0.68-1.068,0.68-1.748c0-0.632-0.243-1.215-0.68-1.701
	C288.59,610.281,288.348,610.038,288.007,609.989z"/>
<path fill-rule="evenodd" fill="#FFFFFF" d="M289.562,658.709c0-0.68-0.243-1.215-0.68-1.7c-0.292-0.243-0.534-0.485-0.875-0.534
	c-0.292-0.146-0.534-0.194-0.874-0.194c-0.68,0-1.214,0.243-1.7,0.729s-0.729,1.021-0.729,1.7s0.243,1.263,0.729,1.749
	c0.486,0.485,1.02,0.68,1.7,0.68c0.34,0,0.583,0,0.874-0.146c0.34-0.146,0.583-0.341,0.875-0.534
	C289.319,659.972,289.562,659.389,289.562,658.709z"/>
<path fill-rule="evenodd" fill="#FFFFFF" d="M288.007,676.293c-0.292-0.049-0.534-0.098-0.874-0.098c-0.68,0-1.214,0.194-1.7,0.632
	c-0.486,0.485-0.729,1.117-0.729,1.797c0,0.632,0.243,1.215,0.729,1.651c0.486,0.486,1.02,0.777,1.7,0.777
	c0.34,0,0.583-0.097,0.874-0.146c0.34-0.146,0.583-0.34,0.875-0.632c0.437-0.437,0.68-1.02,0.68-1.651
	c0-0.68-0.243-1.312-0.68-1.797C288.59,676.633,288.348,676.438,288.007,676.293z"/>
<path fill-rule="evenodd" fill="#FFFFFF" d="M347.17,259.435c-0.292-0.049-0.534-0.098-0.874-0.098c-0.681,0-1.215,0.195-1.7,0.632
	c-0.486,0.486-0.729,1.117-0.729,1.797c0,0.631,0.242,1.214,0.729,1.651c0.485,0.486,1.02,0.777,1.7,0.777
	c0.34,0,0.582-0.097,0.874-0.146c0.34-0.146,0.583-0.34,0.874-0.631c0.486-0.437,0.681-1.02,0.681-1.651
	c0-0.68-0.194-1.312-0.681-1.797C347.753,259.774,347.51,259.58,347.17,259.435z"/>
<path fill-rule="evenodd" fill="#FFFFFF" d="M348.044,236.362c-0.291-0.243-0.534-0.437-0.874-0.534
	c-0.292-0.146-0.534-0.194-0.874-0.194c-0.681,0-1.215,0.292-1.7,0.729c-0.486,0.486-0.729,1.02-0.729,1.7s0.242,1.263,0.729,1.749
	c0.485,0.486,1.02,0.68,1.7,0.68c0.34,0,0.582,0,0.874-0.146c0.34-0.097,0.583-0.34,0.874-0.535
	c0.486-0.486,0.681-1.068,0.681-1.749S348.53,236.848,348.044,236.362z"/>
<path fill-rule="evenodd" fill="#FFFFFF" d="M348.044,209.063c-0.291-0.194-0.534-0.389-0.874-0.534
	c-0.292-0.097-0.534-0.146-0.874-0.146c-0.681,0-1.215,0.194-1.7,0.68c-0.486,0.486-0.729,1.069-0.729,1.749
	c0,0.68,0.242,1.214,0.729,1.7c0.485,0.438,1.02,0.729,1.7,0.729c0.34,0,0.582-0.049,0.874-0.146c0.34-0.146,0.583-0.34,0.874-0.583
	c0.486-0.486,0.681-1.02,0.681-1.7C348.725,210.132,348.53,209.549,348.044,209.063z"/>
<path fill-rule="evenodd" fill="#FFFFFF" d="M411.336,212.075c-0.486,0.486-0.777,1.117-0.777,1.749c0,0.68,0.291,1.214,0.777,1.7
	c0.437,0.486,0.971,0.729,1.651,0.729c0.34,0,0.632-0.048,0.874-0.097c0.34-0.146,0.632-0.34,0.874-0.631
	c0.486-0.486,0.681-1.02,0.681-1.7c0-0.631-0.194-1.263-0.681-1.749c-0.242-0.194-0.534-0.389-0.874-0.534
	c-0.242-0.049-0.534-0.146-0.874-0.146C412.307,211.395,411.772,211.638,411.336,212.075z"/>
<path fill-rule="evenodd" fill="#FFFFFF" d="M414.735,232.524c-0.242-0.194-0.534-0.388-0.874-0.534
	c-0.242-0.049-0.534-0.146-0.874-0.146c-0.681,0-1.215,0.194-1.651,0.68c-0.486,0.486-0.777,1.069-0.777,1.749
	c0,0.68,0.291,1.214,0.777,1.7c0.437,0.485,0.971,0.729,1.651,0.729c0.34,0,0.632-0.049,0.874-0.098
	c0.34-0.146,0.632-0.34,0.874-0.631c0.486-0.486,0.681-1.021,0.681-1.7C415.416,233.593,415.222,233.01,414.735,232.524z"/>
<path fill-rule="evenodd" fill="#FFFFFF" d="M414.735,253.703c-0.242-0.243-0.534-0.437-0.874-0.534
	c-0.242-0.146-0.534-0.194-0.874-0.194c-0.681,0-1.215,0.292-1.651,0.729c-0.486,0.486-0.777,1.02-0.777,1.7
	c0,0.68,0.291,1.264,0.777,1.749c0.437,0.486,0.971,0.68,1.651,0.68c0.34,0,0.632,0,0.874-0.146c0.34-0.146,0.632-0.34,0.874-0.534
	c0.486-0.485,0.681-1.069,0.681-1.749C415.416,254.723,415.222,254.188,414.735,253.703z"/>
<path fill-rule="evenodd" fill="#FFFFFF" d="M413.861,274.687c-0.242-0.146-0.534-0.194-0.874-0.194
	c-0.681,0-1.215,0.292-1.651,0.729c-0.486,0.486-0.777,1.02-0.777,1.7c0,0.68,0.291,1.263,0.777,1.749
	c0.437,0.486,0.971,0.68,1.651,0.68c0.34,0,0.632,0,0.874-0.146c0.34-0.097,0.632-0.34,0.874-0.534
	c0.486-0.486,0.681-1.069,0.681-1.749c0-0.68-0.194-1.214-0.681-1.7C414.493,274.978,414.201,274.784,413.861,274.687z"/>
<path fill-rule="evenodd" fill="#FFFFFF" d="M414.735,335.938c-0.242-0.243-0.534-0.438-0.874-0.535
	c-0.242-0.146-0.534-0.194-0.874-0.194c-0.681,0-1.215,0.291-1.651,0.729c-0.486,0.485-0.777,1.02-0.777,1.7
	s0.291,1.263,0.777,1.749c0.437,0.486,0.971,0.68,1.651,0.68c0.34,0,0.632,0,0.874-0.146c0.34-0.097,0.632-0.34,0.874-0.535
	c0.486-0.485,0.681-1.068,0.681-1.749S415.222,336.423,414.735,335.938z"/>
<path fill-rule="evenodd" fill="#FFFFFF" d="M414.735,358.33c-0.242-0.243-0.534-0.437-0.874-0.534
	c-0.242-0.097-0.534-0.194-0.874-0.194c-0.681,0-1.215,0.292-1.651,0.729c-0.486,0.486-0.777,1.02-0.777,1.7
	s0.291,1.312,0.777,1.749c0.437,0.486,0.971,0.68,1.651,0.68c0.34,0,0.632,0,0.874-0.146c0.34-0.097,0.632-0.34,0.874-0.535
	c0.486-0.437,0.681-1.068,0.681-1.749S415.222,358.816,414.735,358.33z"/>
<path fill-rule="evenodd" fill="#FFFFFF" d="M414.735,404.038c-0.242-0.292-0.534-0.486-0.874-0.632
	c-0.242-0.048-0.534-0.146-0.874-0.146c-0.681,0-1.215,0.243-1.651,0.777c-0.486,0.389-0.777,1.02-0.777,1.651
	c0,0.68,0.291,1.214,0.777,1.7c0.437,0.485,0.971,0.729,1.651,0.729c0.34,0,0.632-0.048,0.874-0.097
	c0.34-0.146,0.632-0.34,0.874-0.631c0.486-0.486,0.681-1.02,0.681-1.7C415.416,405.058,415.222,404.427,414.735,404.038z"/>
<path fill-rule="evenodd" fill="#FFFFFF" d="M414.735,423.808c-0.242-0.194-0.534-0.438-0.874-0.535
	c-0.242-0.097-0.534-0.146-0.874-0.146c-0.681,0-1.215,0.194-1.651,0.681c-0.486,0.437-0.777,1.068-0.777,1.748
	c0,0.681,0.291,1.215,0.777,1.749c0.437,0.389,0.971,0.68,1.651,0.68c0.34,0,0.632,0,0.874-0.146c0.34-0.146,0.632-0.34,0.874-0.534
	c0.486-0.534,0.681-1.068,0.681-1.749C415.416,424.876,415.222,424.244,414.735,423.808z"/>
<path fill-rule="evenodd" fill="#FFFFFF" d="M411.336,445.763c-0.486,0.485-0.777,1.117-0.777,1.797
	c0,0.632,0.291,1.215,0.777,1.651c0.437,0.486,0.971,0.777,1.651,0.777c0.34,0,0.632-0.097,0.874-0.146
	c0.34-0.146,0.632-0.34,0.874-0.632c0.486-0.437,0.681-1.02,0.681-1.651c0-0.68-0.194-1.312-0.681-1.797
	c-0.242-0.194-0.534-0.389-0.874-0.534c-0.242-0.049-0.534-0.098-0.874-0.098C412.307,445.131,411.772,445.325,411.336,445.763z"/>
<path fill-rule="evenodd" fill="#FFFFFF" d="M414.735,466.893c-0.242-0.195-0.534-0.389-0.874-0.535
	c-0.242-0.048-0.534-0.146-0.874-0.146c-0.681,0-1.215,0.194-1.651,0.681c-0.486,0.485-0.777,1.068-0.777,1.748
	s0.291,1.214,0.777,1.7c0.437,0.485,0.971,0.729,1.651,0.729c0.34,0,0.632-0.049,0.874-0.097c0.34-0.146,0.632-0.341,0.874-0.632
	c0.486-0.486,0.681-1.021,0.681-1.7S415.222,467.378,414.735,466.893z"/>
<path fill-rule="evenodd" fill="#FFFFFF" d="M414.735,572.054c-0.242-0.194-0.534-0.389-0.874-0.534
	c-0.242-0.049-0.534-0.098-0.874-0.098c-0.681,0-1.215,0.195-1.651,0.632c-0.486,0.485-0.777,1.117-0.777,1.797
	c0,0.632,0.291,1.215,0.777,1.652c0.437,0.485,0.971,0.776,1.651,0.776c0.34,0,0.632-0.097,0.874-0.146
	c0.34-0.146,0.632-0.34,0.874-0.631c0.486-0.438,0.681-1.021,0.681-1.652C415.416,573.171,415.222,572.539,414.735,572.054z"/>
<path fill-rule="evenodd" fill="#FFFFFF" d="M414.735,590.269c-0.242-0.242-0.534-0.437-0.874-0.534
	c-0.242-0.049-0.534-0.194-0.874-0.194c-0.681,0-1.215,0.292-1.651,0.729c-0.486,0.486-0.777,1.117-0.777,1.798
	c0,0.631,0.291,1.214,0.777,1.651c0.437,0.485,0.971,0.68,1.651,0.68c0.34,0,0.632,0,0.874-0.146c0.34-0.098,0.632-0.34,0.874-0.534
	c0.486-0.438,0.681-1.021,0.681-1.651C415.416,591.386,415.222,590.755,414.735,590.269z"/>
<path fill-rule="evenodd" fill="#FFFFFF" d="M413.861,609.164c-0.242-0.097-0.534-0.194-0.874-0.194
	c-0.681,0-1.215,0.291-1.651,0.729c-0.486,0.486-0.777,1.021-0.777,1.7s0.291,1.312,0.777,1.749c0.437,0.485,0.971,0.68,1.651,0.68
	c0.34,0,0.632,0,0.874-0.146c0.34-0.098,0.632-0.34,0.874-0.534c0.486-0.438,0.681-1.069,0.681-1.749s-0.194-1.214-0.681-1.7
	C414.493,609.455,414.201,609.261,413.861,609.164z"/>
<path fill-rule="evenodd" fill="#FFFFFF" d="M410.559,631.653c0,0.68,0.291,1.263,0.777,1.749c0.437,0.485,0.971,0.68,1.651,0.68
	c0.34,0,0.632,0,0.874-0.146c0.34-0.146,0.632-0.34,0.874-0.534c0.486-0.486,0.681-1.069,0.681-1.749s-0.194-1.214-0.681-1.7
	c-0.242-0.242-0.534-0.485-0.874-0.534c-0.242-0.146-0.534-0.194-0.874-0.194c-0.681,0-1.215,0.243-1.651,0.729
	C410.85,630.439,410.559,630.974,410.559,631.653z"/>
<path fill-rule="evenodd" fill="#FFFFFF" d="M430.425,673.621c-0.485,0.438-0.68,1.068-0.68,1.749c0,0.68,0.194,1.214,0.68,1.699
	c0.438,0.438,1.069,0.729,1.749,0.729c0.243,0,0.583-0.097,0.874-0.146c0.243-0.146,0.583-0.34,0.777-0.583
	c0.486-0.485,0.777-1.02,0.777-1.699c0-0.681-0.291-1.312-0.777-1.749c-0.194-0.194-0.534-0.438-0.777-0.534
	c-0.291-0.098-0.631-0.146-0.874-0.146C431.494,672.941,430.862,673.136,430.425,673.621z"/>
<path fill-rule="evenodd" fill="#FFFFFF" d="M444.754,690.622c0,0.68,0.292,1.263,0.777,1.748c0.438,0.486,1.021,0.681,1.651,0.681
	c0.341,0,0.632,0,0.923-0.098c0.292-0.194,0.583-0.34,0.875-0.583c0.437-0.485,0.631-1.068,0.631-1.748s-0.194-1.215-0.631-1.7
	c-0.292-0.292-0.583-0.486-0.875-0.534c-0.291-0.146-0.582-0.146-0.923-0.146c-0.631,0-1.214,0.193-1.651,0.68
	C445.046,689.407,444.754,689.942,444.754,690.622z"/>
<path fill-rule="evenodd" fill="#FFFFFF" d="M469.673,709.614c-0.292-0.243-0.535-0.438-0.875-0.534
	c-0.291-0.098-0.534-0.194-0.874-0.194c-0.68,0-1.215,0.291-1.7,0.729c-0.485,0.485-0.729,1.021-0.729,1.7s0.243,1.312,0.729,1.748
	c0.485,0.486,1.021,0.681,1.7,0.681c0.34,0,0.583,0,0.874-0.146c0.34-0.097,0.583-0.34,0.875-0.534
	c0.485-0.437,0.68-1.068,0.68-1.748S470.158,710.1,469.673,709.614z"/>
<path fill-rule="evenodd" fill="#FFFFFF" d="M484.827,709.614c-0.437,0.485-0.631,1.021-0.631,1.7s0.194,1.312,0.631,1.748
	c0.486,0.486,1.117,0.681,1.798,0.681c0.242,0,0.582,0,0.874-0.146c0.243-0.097,0.583-0.34,0.777-0.534
	c0.485-0.437,0.777-1.068,0.777-1.748s-0.292-1.215-0.777-1.7c-0.194-0.243-0.534-0.438-0.777-0.534
	c-0.292-0.098-0.632-0.194-0.874-0.194C485.944,708.886,485.313,709.177,484.827,709.614z"/>
<path fill-rule="evenodd" fill="#FFFFFF" d="M513.729,709.614c-0.485,0.485-0.68,1.021-0.68,1.7s0.194,1.312,0.68,1.748
	c0.485,0.486,1.068,0.681,1.749,0.681c0.291,0,0.631,0,0.874-0.146c0.291-0.097,0.632-0.34,0.826-0.534
	c0.437-0.437,0.729-1.068,0.729-1.748s-0.292-1.215-0.729-1.7c-0.194-0.243-0.535-0.438-0.826-0.534
	c-0.243-0.098-0.583-0.194-0.874-0.194C514.797,708.886,514.214,709.177,513.729,709.614z"/>
<path fill-rule="evenodd" fill="#FFFFFF" d="M546.759,709.614c-0.243-0.243-0.534-0.438-0.874-0.534
	c-0.243-0.098-0.535-0.194-0.875-0.194c-0.68,0-1.214,0.291-1.651,0.729c-0.485,0.485-0.777,1.021-0.777,1.7
	s0.292,1.312,0.777,1.748c0.438,0.486,0.972,0.681,1.651,0.681c0.34,0,0.632,0,0.875-0.146c0.34-0.097,0.631-0.34,0.874-0.534
	c0.485-0.437,0.68-1.068,0.68-1.748S547.244,710.1,546.759,709.614z"/>
<path fill-rule="evenodd" fill="#FFFFFF" d="M574.251,708.886c-0.68,0-1.311,0.291-1.748,0.729c-0.486,0.485-0.681,1.021-0.681,1.7
	s0.194,1.312,0.681,1.748c0.438,0.486,1.068,0.681,1.748,0.681c0.243,0,0.583,0,0.875-0.146c0.242-0.097,0.583-0.34,0.825-0.534
	c0.438-0.437,0.729-1.068,0.729-1.748s-0.291-1.215-0.729-1.7c-0.242-0.243-0.583-0.438-0.825-0.534
	C574.834,708.982,574.494,708.886,574.251,708.886z"/>
<path fill-rule="evenodd" fill="#FFFFFF" d="M603.881,709.614c-0.242-0.243-0.582-0.438-0.825-0.534
	c-0.292-0.098-0.632-0.194-0.875-0.194c-0.68,0-1.311,0.291-1.748,0.729c-0.485,0.485-0.68,1.021-0.68,1.7s0.194,1.312,0.68,1.748
	c0.438,0.486,1.068,0.681,1.748,0.681c0.243,0,0.583,0,0.875-0.146c0.243-0.097,0.583-0.34,0.825-0.534
	c0.438-0.437,0.729-1.068,0.729-1.748S604.318,710.1,603.881,709.614z"/>
<path fill-rule="evenodd" fill="#FFFFFF" d="M636.766,709.614c-0.243-0.243-0.534-0.438-0.874-0.534
	c-0.243-0.098-0.535-0.194-0.875-0.194c-0.68,0-1.214,0.291-1.7,0.729c-0.437,0.485-0.729,1.021-0.729,1.7s0.292,1.312,0.729,1.748
	c0.486,0.486,1.021,0.681,1.7,0.681c0.34,0,0.632,0,0.875-0.146c0.34-0.097,0.631-0.34,0.874-0.534
	c0.485-0.437,0.68-1.068,0.68-1.748S637.251,710.1,636.766,709.614z"/>
<path fill-rule="evenodd" fill="#FFFFFF" d="M465.301,429.879c-0.68,0-1.214,0.243-1.7,0.729c-0.485,0.486-0.729,1.068-0.729,1.749
	c0,0.68,0.243,1.214,0.729,1.7c0.486,0.485,1.021,0.68,1.7,0.68c0.34,0,0.583,0,0.875-0.146c0.34-0.146,0.582-0.34,0.874-0.534
	c0.485-0.486,0.68-1.021,0.68-1.7c0-0.681-0.194-1.263-0.68-1.749c-0.292-0.291-0.534-0.485-0.874-0.534
	C465.884,429.976,465.641,429.879,465.301,429.879z"/>
<path fill-rule="evenodd" fill="#FFFFFF" d="M467.05,456.303c-0.292-0.242-0.534-0.485-0.874-0.534
	c-0.292-0.146-0.535-0.194-0.875-0.194c-0.68,0-1.214,0.243-1.7,0.729c-0.485,0.486-0.729,1.021-0.729,1.7s0.243,1.263,0.729,1.749
	c0.486,0.485,1.021,0.68,1.7,0.68c0.34,0,0.583,0,0.875-0.146c0.34-0.146,0.582-0.34,0.874-0.534c0.485-0.486,0.68-1.069,0.68-1.749
	S467.535,456.789,467.05,456.303z"/>
<path fill-rule="evenodd" fill="#FFFFFF" d="M457.918,529.892c-0.194-0.243-0.534-0.437-0.777-0.534
	c-0.292-0.097-0.632-0.194-0.874-0.194c-0.681,0-1.312,0.292-1.798,0.729c-0.438,0.486-0.631,1.021-0.631,1.7
	c0,0.681,0.193,1.312,0.631,1.749c0.486,0.485,1.117,0.68,1.798,0.68c0.242,0,0.582,0,0.874-0.146
	c0.243-0.097,0.583-0.34,0.777-0.534c0.485-0.438,0.777-1.068,0.777-1.749C458.695,530.912,458.403,530.378,457.918,529.892z"/>
<path fill-rule="evenodd" fill="#FFFFFF" d="M534.032,542.035c-0.291-0.194-0.534-0.389-0.874-0.534
	c-0.292-0.049-0.534-0.097-0.874-0.097c-0.681,0-1.215,0.193-1.7,0.631c-0.486,0.486-0.729,1.117-0.729,1.749
	c0,0.68,0.242,1.263,0.729,1.7c0.485,0.485,1.02,0.776,1.7,0.776c0.34,0,0.582-0.097,0.874-0.146c0.34-0.146,0.583-0.34,0.874-0.631
	c0.485-0.438,0.681-1.021,0.681-1.7C534.713,543.152,534.518,542.521,534.032,542.035z"/>
<path fill-rule="evenodd" fill="#FFFFFF" d="M534.032,574.726c-0.291-0.243-0.534-0.438-0.874-0.583
	c-0.292-0.049-0.534-0.098-0.874-0.098c-0.681,0-1.215,0.194-1.7,0.681c-0.486,0.437-0.729,1.068-0.729,1.748
	c0,0.681,0.242,1.215,0.729,1.749c0.485,0.389,1.02,0.68,1.7,0.68c0.34,0,0.582,0,0.874-0.146c0.34-0.146,0.583-0.34,0.874-0.534
	c0.485-0.534,0.681-1.068,0.681-1.749C534.713,575.794,534.518,575.162,534.032,574.726z"/>
<path fill-rule="evenodd" fill="#FFFFFF" d="M534.032,461.354c-0.291-0.194-0.534-0.389-0.874-0.534
	c-0.292-0.049-0.534-0.146-0.874-0.146c-0.681,0-1.215,0.243-1.7,0.68c-0.486,0.485-0.729,1.117-0.729,1.749
	c0,0.68,0.242,1.214,0.729,1.7c0.485,0.485,1.02,0.729,1.7,0.729c0.34,0,0.582-0.049,0.874-0.098c0.34-0.146,0.583-0.34,0.874-0.631
	c0.485-0.486,0.681-1.021,0.681-1.7C534.713,462.472,534.518,461.84,534.032,461.354z"/>
<path fill-rule="evenodd" fill="#FFFFFF" d="M534.032,434.785c-0.291-0.194-0.534-0.389-0.874-0.534
	c-0.292-0.049-0.534-0.146-0.874-0.146c-0.681,0-1.215,0.292-1.7,0.681c-0.486,0.485-0.729,1.068-0.729,1.749
	c0,0.68,0.242,1.214,0.729,1.699c0.485,0.534,1.02,0.729,1.7,0.729c0.34,0,0.582-0.048,0.874-0.146
	c0.34-0.097,0.583-0.34,0.874-0.583c0.485-0.485,0.681-1.02,0.681-1.699C534.713,435.854,534.518,435.271,534.032,434.785z"/>
<path fill-rule="evenodd" fill="#FFFFFF" d="M534.032,409.43c-0.291-0.194-0.534-0.389-0.874-0.534
	c-0.292-0.098-0.534-0.146-0.874-0.146c-0.681,0-1.215,0.194-1.7,0.68c-0.486,0.485-0.729,1.068-0.729,1.749
	c0,0.68,0.242,1.263,0.729,1.7c0.485,0.437,1.02,0.729,1.7,0.729c0.34,0,0.582-0.049,0.874-0.146c0.34-0.146,0.583-0.34,0.874-0.583
	c0.485-0.437,0.681-1.021,0.681-1.7C534.713,410.498,534.518,409.915,534.032,409.43z"/>
<path fill-rule="evenodd" fill="#FFFFFF" d="M534.032,383.637c-0.291-0.194-0.534-0.388-0.874-0.534
	c-0.292-0.048-0.534-0.146-0.874-0.146c-0.681,0-1.215,0.243-1.7,0.68c-0.486,0.486-0.729,1.117-0.729,1.749
	c0,0.68,0.242,1.214,0.729,1.797c0.485,0.389,1.02,0.632,1.7,0.632c0.34,0,0.582,0,0.874-0.097c0.34-0.146,0.583-0.34,0.874-0.535
	c0.485-0.583,0.681-1.117,0.681-1.797C534.713,384.754,534.518,384.123,534.032,383.637z"/>
<path fill-rule="evenodd" fill="#FFFFFF" d="M534.032,356.679c-0.291-0.292-0.534-0.486-0.874-0.534
	c-0.292-0.146-0.534-0.243-0.874-0.243c-0.681,0-1.215,0.292-1.7,0.777c-0.486,0.437-0.729,1.02-0.729,1.651
	c0,0.68,0.242,1.312,0.729,1.797c0.485,0.437,1.02,0.631,1.7,0.631c0.34,0,0.582,0,0.874-0.097c0.34-0.146,0.583-0.34,0.874-0.534
	c0.485-0.486,0.681-1.117,0.681-1.797C534.713,357.699,534.518,357.116,534.032,356.679z"/>
<path fill-rule="evenodd" fill="#FFFFFF" d="M533.692,330.837c-0.194-0.194-0.534-0.437-0.826-0.534
	c-0.242-0.097-0.582-0.146-0.874-0.146c-0.68,0-1.263,0.194-1.748,0.68c-0.486,0.486-0.681,1.069-0.681,1.749
	c0,0.68,0.194,1.214,0.681,1.7c0.485,0.438,1.068,0.729,1.748,0.729c0.292,0,0.632-0.048,0.874-0.146
	c0.292-0.146,0.632-0.34,0.826-0.583c0.485-0.486,0.729-1.02,0.729-1.7C534.421,331.906,534.178,331.323,533.692,330.837z"/>
<path fill-rule="evenodd" fill="#FFFFFF" d="M521.743,309.514c-0.243-0.146-0.534-0.194-0.874-0.194c-0.681,0-1.215,0.243-1.7,0.729
	c-0.438,0.486-0.729,1.02-0.729,1.7s0.291,1.263,0.729,1.749c0.485,0.486,1.02,0.68,1.7,0.68c0.34,0,0.631,0,0.874-0.146
	c0.34-0.146,0.632-0.34,0.874-0.535c0.486-0.485,0.681-1.068,0.681-1.749s-0.194-1.214-0.681-1.7
	C522.375,309.757,522.083,309.562,521.743,309.514z"/>
<path fill-rule="evenodd" fill="#FFFFFF" d="M480.747,370.279c-0.291-0.243-0.534-0.437-0.874-0.534
	c-0.292-0.146-0.534-0.194-0.874-0.194c-0.681,0-1.215,0.292-1.7,0.729c-0.486,0.486-0.729,1.02-0.729,1.7s0.242,1.263,0.729,1.749
	c0.485,0.486,1.02,0.68,1.7,0.68c0.34,0,0.582,0,0.874-0.048c0.34-0.243,0.583-0.34,0.874-0.631
	c0.438-0.486,0.681-1.068,0.681-1.749S481.185,370.765,480.747,370.279z"/>
<path fill-rule="evenodd" fill="#FFFFFF" d="M479.873,334.286c-0.292-0.146-0.534-0.243-0.874-0.243c-0.681,0-1.215,0.292-1.7,0.777
	c-0.486,0.437-0.729,1.02-0.729,1.651c0,0.68,0.242,1.311,0.729,1.797c0.485,0.437,1.02,0.631,1.7,0.631c0.34,0,0.582,0,0.874-0.097
	c0.34-0.146,0.583-0.34,0.874-0.534c0.438-0.486,0.681-1.117,0.681-1.797c0-0.632-0.243-1.214-0.681-1.651
	C480.456,334.529,480.213,334.335,479.873,334.286z"/>
<path fill-rule="evenodd" fill="#FFFFFF" d="M477.299,246.563c0.485,0.485,1.02,0.68,1.7,0.68c0.34,0,0.582,0,0.874-0.146
	c0.34-0.146,0.583-0.34,0.874-0.534c0.438-0.486,0.681-1.068,0.681-1.749s-0.243-1.214-0.681-1.7
	c-0.291-0.243-0.534-0.437-0.874-0.535c-0.292-0.146-0.534-0.194-0.874-0.194c-0.681,0-1.215,0.292-1.7,0.729
	c-0.486,0.486-0.729,1.02-0.729,1.7S476.813,246.077,477.299,246.563z"/>
<path fill-rule="evenodd" fill="#FFFFFF" d="M443.346,318.743c-0.243-0.243-0.534-0.486-0.875-0.534
	c-0.242-0.146-0.533-0.194-0.874-0.194c-0.68,0-1.214,0.243-1.699,0.729c-0.438,0.486-0.729,1.02-0.729,1.7s0.292,1.263,0.729,1.749
	c0.485,0.485,1.02,0.68,1.699,0.68c0.341,0,0.632,0,0.874-0.146c0.341-0.146,0.632-0.34,0.875-0.534
	c0.485-0.486,0.68-1.068,0.68-1.749S443.831,319.229,443.346,318.743z"/>
<path fill-rule="evenodd" fill="#FFFFFF" d="M478.999,210.521c-0.681,0-1.215,0.243-1.7,0.68c-0.486,0.485-0.729,1.117-0.729,1.749
	c0,0.68,0.242,1.214,0.729,1.7c0.485,0.486,1.02,0.729,1.7,0.729c0.34,0,0.582-0.049,0.874-0.097c0.34-0.146,0.583-0.34,0.874-0.632
	c0.438-0.485,0.681-1.02,0.681-1.7c0-0.632-0.243-1.263-0.681-1.749c-0.291-0.195-0.534-0.389-0.874-0.535
	C479.581,210.618,479.339,210.521,478.999,210.521z"/>
<path fill-rule="evenodd" fill="#FFFFFF" d="M411.336,160.393c-0.486,0.485-0.777,1.02-0.777,1.7c0,0.68,0.291,1.312,0.777,1.749
	c0.437,0.486,0.971,0.68,1.651,0.68c0.34,0,0.632,0,0.874-0.146c0.34-0.097,0.632-0.34,0.874-0.534
	c0.486-0.438,0.681-1.069,0.681-1.749c0-0.68-0.194-1.214-0.681-1.7c-0.242-0.243-0.534-0.437-0.874-0.535
	c-0.242-0.097-0.534-0.194-0.874-0.194C412.307,159.664,411.772,159.956,411.336,160.393z"/>
<path fill-rule="evenodd" fill="#FFFFFF" d="M412.987,131.2c-0.681,0-1.215,0.292-1.651,0.729c-0.486,0.486-0.777,1.02-0.777,1.7
	s0.291,1.263,0.777,1.749c0.437,0.486,0.971,0.68,1.651,0.68c0.34,0,0.632,0,0.874-0.146c0.34-0.097,0.632-0.34,0.874-0.534
	c0.486-0.486,0.681-1.068,0.681-1.749s-0.194-1.214-0.681-1.7c-0.242-0.243-0.534-0.437-0.874-0.534
	C413.619,131.249,413.327,131.2,412.987,131.2z"/>
<path fill-rule="evenodd" fill="#FFFFFF" d="M140.587,221.256c-0.68,0-1.263,0.291-1.749,0.777c-0.486,0.438-0.68,0.972-0.68,1.652
	c0,0.68,0.194,1.311,0.68,1.748c0.486,0.486,1.069,0.68,1.749,0.68c0.292,0,0.583,0,0.874-0.146
	c0.292-0.097,0.631-0.292,0.826-0.535c0.437-0.437,0.729-1.068,0.729-1.748c0-0.68-0.292-1.214-0.729-1.652
	c-0.194-0.292-0.534-0.486-0.826-0.583S140.878,221.256,140.587,221.256z"/>
<path fill-rule="evenodd" fill="#FFFFFF" d="M141.461,244.814c-0.292-0.146-0.583-0.195-0.874-0.195
	c-0.68,0-1.263,0.243-1.749,0.729s-0.68,1.02-0.68,1.7c0,0.68,0.194,1.263,0.68,1.749s1.069,0.68,1.749,0.68
	c0.292,0,0.583,0,0.874-0.146s0.631-0.34,0.826-0.534c0.437-0.486,0.729-1.069,0.729-1.749c0-0.68-0.292-1.214-0.729-1.7
	C142.092,245.105,141.752,244.862,141.461,244.814z"/>
<path fill-rule="evenodd" fill="#FFFFFF" d="M140.587,269.489c-0.68,0-1.263,0.291-1.749,0.777c-0.486,0.437-0.68,0.971-0.68,1.651
	c0,0.68,0.194,1.311,0.68,1.749c0.486,0.486,1.069,0.68,1.749,0.68c0.292,0,0.583,0,0.874-0.097c0.292-0.146,0.631-0.34,0.826-0.583
	c0.437-0.438,0.729-1.069,0.729-1.749c0-0.68-0.292-1.214-0.729-1.651c-0.194-0.292-0.534-0.486-0.826-0.583
	C141.169,269.586,140.878,269.489,140.587,269.489z"/>
<path fill-rule="evenodd" fill="#FFFFFF" d="M140.587,337.298c-0.68,0-1.263,0.292-1.749,0.729c-0.486,0.486-0.68,1.02-0.68,1.7
	s0.194,1.312,0.68,1.749c0.486,0.486,1.069,0.68,1.749,0.68c0.292,0,0.583,0,0.874-0.146c0.292-0.097,0.631-0.34,0.826-0.534
	c0.437-0.437,0.729-1.068,0.729-1.749s-0.292-1.214-0.729-1.7c-0.194-0.243-0.534-0.437-0.826-0.534
	S140.878,337.298,140.587,337.298z"/>
<path fill-rule="evenodd" fill="#FFFFFF" d="M140.587,371.688c-0.68,0-1.263,0.292-1.749,0.68c-0.486,0.486-0.68,1.118-0.68,1.749
	c0,0.68,0.194,1.214,0.68,1.7c0.486,0.534,1.069,0.729,1.749,0.729c0.292,0,0.583-0.049,0.874-0.097
	c0.292-0.146,0.631-0.34,0.826-0.631c0.437-0.486,0.729-1.021,0.729-1.7c0-0.631-0.292-1.263-0.729-1.749
	c-0.194-0.194-0.534-0.388-0.826-0.534C141.169,371.785,140.878,371.688,140.587,371.688z"/>
<path fill-rule="evenodd" fill="#FFFFFF" d="M191.297,404.572c-0.243-0.146-0.583-0.194-0.874-0.194
	c-0.68,0-1.263,0.243-1.749,0.729c-0.438,0.486-0.68,1.02-0.68,1.7c0,0.68,0.243,1.263,0.68,1.749
	c0.485,0.486,1.068,0.68,1.749,0.68c0.292,0,0.631,0,0.874-0.146c0.292-0.146,0.583-0.34,0.826-0.534
	c0.486-0.485,0.729-1.069,0.729-1.749c0-0.68-0.243-1.214-0.729-1.7C191.88,404.815,191.589,404.718,191.297,404.572z"/>
<path fill-rule="evenodd" fill="#FFFFFF" d="M218.499,245.688c-0.486,0.486-0.729,1.02-0.729,1.7s0.243,1.263,0.729,1.749
	c0.486,0.486,1.02,0.68,1.7,0.68c0.34,0,0.583,0,0.875-0.146c0.34-0.146,0.583-0.34,0.826-0.534
	c0.534-0.485,0.729-1.068,0.729-1.749s-0.194-1.214-0.729-1.7c-0.243-0.292-0.486-0.485-0.826-0.534
	c-0.292-0.146-0.535-0.194-0.875-0.194C219.519,244.959,218.984,245.203,218.499,245.688z"/>
<path fill-rule="evenodd" fill="#FFFFFF" d="M221.073,273.083c0.34-0.146,0.583-0.34,0.826-0.534
	c0.534-0.486,0.729-1.068,0.729-1.749s-0.194-1.214-0.729-1.7c-0.243-0.292-0.486-0.486-0.826-0.534
	c-0.292-0.146-0.535-0.194-0.875-0.194c-0.68,0-1.214,0.243-1.7,0.729s-0.729,1.02-0.729,1.7s0.243,1.263,0.729,1.749
	s1.02,0.68,1.7,0.68C220.539,273.229,220.781,273.229,221.073,273.083z"/>
<path fill-rule="evenodd" fill="#FFFFFF" d="M285.676,406.37c-0.631,0-1.263,0.243-1.749,0.68c-0.437,0.486-0.68,1.021-0.68,1.7
	c0,0.68,0.243,1.263,0.68,1.749c0.486,0.486,1.117,0.68,1.749,0.68c0.292,0,0.632,0,0.923-0.049c0.243-0.243,0.583-0.34,0.777-0.631
	c0.486-0.486,0.729-1.068,0.729-1.749c0-0.68-0.243-1.214-0.729-1.7c-0.194-0.243-0.534-0.437-0.777-0.534
	C286.308,406.37,285.967,406.37,285.676,406.37z"/>
<path fill-rule="evenodd" fill="#FFFFFF" d="M245.505,532.126c-0.68,0-1.214,0.194-1.7,0.681c-0.486,0.485-0.729,1.068-0.729,1.748
	c0,0.681,0.243,1.215,0.729,1.7c0.485,0.486,1.02,0.729,1.7,0.729c0.34,0,0.583-0.048,0.875-0.146
	c0.34-0.097,0.583-0.291,0.875-0.583c0.485-0.485,0.68-1.02,0.68-1.7c0-0.68-0.194-1.263-0.68-1.748
	c-0.292-0.194-0.535-0.389-0.875-0.534C246.088,532.224,245.846,532.126,245.505,532.126z"/>
<path fill-rule="evenodd" fill="#FFFFFF" d="M655.467,181.182c-0.681,0-1.264,0.195-1.749,0.68c-0.486,0.486-0.68,1.069-0.68,1.749
	c0,0.68,0.193,1.214,0.68,1.7c0.485,0.486,1.068,0.729,1.749,0.729c0.291,0,0.631-0.048,0.874-0.146
	c0.291-0.097,0.632-0.292,0.825-0.583c0.438-0.486,0.729-1.02,0.729-1.7c0-0.68-0.291-1.263-0.729-1.749
	c-0.193-0.194-0.534-0.388-0.825-0.534C656.098,181.279,655.758,181.182,655.467,181.182z"/>
<path fill-rule="evenodd" fill="#FFFFFF" d="M170.071,161.17c-0.68,0-1.214,0.243-1.7,0.729c-0.486,0.485-0.729,1.02-0.729,1.7
	s0.243,1.263,0.729,1.749c0.486,0.485,1.02,0.68,1.7,0.68c0.34,0,0.583,0,0.874-0.146c0.34-0.146,0.583-0.34,0.875-0.534
	c0.486-0.486,0.68-1.069,0.68-1.749s-0.194-1.214-0.68-1.7c-0.291-0.292-0.534-0.486-0.875-0.535
	C170.654,161.219,170.411,161.17,170.071,161.17z"/>
</svg>
