<?xml version="1.0" standalone="no"?>
<!DOCTYPE svg PUBLIC "-//W3C//DTD SVG 20010904//EN"
 "http://www.w3.org/TR/2001/REC-SVG-20010904/DTD/svg10.dtd">
<svg version="1.0" xmlns="http://www.w3.org/2000/svg"
 width="1442.000000pt" height="557.000000pt" viewBox="0 0 1442.000000 557.000000"
 preserveAspectRatio="xMidYMid meet">
<metadata>
Created by potrace 1.13, written by Peter Selinger 2001-2015  this was the last color #e6b800
</metadata>
<g transform="translate(0.000000,557.000000) scale(0.100000,-0.100000)"
fill="#3F72AF" stroke="none">
<path d="M11638 5390 c-4 -102 -11 -294 -14 -427 l-7 -243 -84 0 c-89 0 -123
-10 -123 -37 0 -31 32 -42 123 -43 80 0 87 -2 87 -20 0 -19 -7 -20 -110 -20
l-110 0 0 -1408 c0 -775 -3 -1411 -6 -1415 -4 -3 -25 9 -48 28 l-41 33 -62
-71 -62 -72 -1 -97 c0 -91 -1 -98 -20 -98 -19 0 -20 -7 -20 -216 0 -206 -1
-216 -20 -221 -17 -5 -20 -15 -22 -97 l-3 -91 -50 0 -50 0 -3 507 -2 508 -45
0 -45 0 0 155 0 155 -85 0 -85 0 0 -155 c0 -117 -3 -155 -12 -155 -10 0 -13
-34 -13 -137 l0 -138 -142 -3 -143 -3 0 -24 c0 -18 -5 -25 -19 -25 -10 0 -33
-3 -50 -6 l-31 -6 0 104 0 105 -25 -5 c-24 -4 -25 -2 -25 47 l0 51 -175 0
-175 0 0 -235 0 -235 -65 0 -65 0 0 -195 0 -195 -40 0 c-39 0 -40 1 -40 35 l0
35 -55 0 c-51 0 -55 2 -55 23 0 18 -5 23 -27 22 -24 0 -28 4 -31 32 -2 25 -8
33 -22 33 -17 0 -20 -9 -22 -87 -3 -88 -3 -88 -30 -91 l-28 -3 0 164 c0 105
-6 197 -16 253 -15 88 -34 204 -58 359 -14 93 -19 86 -41 -65 -9 -58 -18 -112
-20 -120 -18 -62 -39 -244 -44 -395 -5 -160 -8 -180 -23 -183 -17 -3 -18 26
-18 502 l0 506 -235 0 -235 0 0 -100 0 -100 -35 0 -35 0 0 -205 c0 -168 -2
-205 -14 -205 -9 0 -21 25 -32 66 l-18 66 -19 -66 -20 -67 -66 3 -66 3 -3 183
-2 182 -35 0 c-33 0 -35 -2 -35 -35 l0 -35 -140 0 -140 0 0 24 c0 22 -5 24
-55 28 l-55 3 0 -42 0 -43 -50 0 -50 0 0 35 c0 35 0 35 -45 35 l-45 0 0 -175
0 -175 -55 0 -54 0 -3 -97 -3 -98 -37 -3 -37 -3 -3 -112 -3 -112 -30 0 -30 0
-5 185 c-5 171 -7 189 -29 232 -19 37 -27 45 -38 37 -7 -6 -13 -16 -13 -21 0
-5 -9 -28 -20 -50 -17 -35 -20 -62 -20 -176 l0 -133 -32 3 -33 3 0 463 0 462
-167 0 -168 0 0 -75 c0 -68 -2 -75 -20 -75 -19 0 -20 -7 -20 -160 l0 -161 -67
3 -68 3 0 223 0 222 -107 0 -108 0 0 180 0 180 -135 0 -135 0 0 -90 0 -90
-135 0 -135 0 0 -350 c0 -302 -2 -350 -15 -350 -12 0 -15 -26 -17 -152 -3
-136 -5 -153 -20 -156 -17 -3 -18 55 -18 1102 l0 1106 -25 0 -26 0 3 185 3
185 -27 0 -28 0 0 75 c0 73 -1 75 -25 75 -21 0 -25 5 -25 30 0 27 -3 30 -30
30 -28 0 -30 2 -30 40 0 33 -3 40 -20 40 -13 0 -20 7 -20 20 0 11 -7 20 -15
20 -13 0 -15 32 -15 226 0 128 -4 233 -10 244 -22 41 -105 45 -147 7 -23 -20
-23 -24 -23 -269 l0 -248 -35 0 c-33 0 -35 -2 -35 -35 0 -31 -3 -35 -25 -35
-22 0 -25 -4 -25 -34 0 -29 -4 -34 -30 -39 -30 -6 -30 -7 -30 -72 0 -58 -2
-65 -20 -65 -19 0 -20 -7 -20 -185 0 -156 -2 -187 -15 -191 -13 -5 -15 -118
-15 -929 l0 -924 -22 -18 c-13 -10 -23 -26 -24 -35 0 -10 -1 -43 -2 -73 l-2
-55 -35 0 -35 0 0 523 0 522 -140 0 -140 0 0 -562 c0 -377 -3 -563 -10 -563
-6 0 -42 32 -80 72 l-70 71 0 454 0 453 -40 0 c-40 0 -40 0 -40 38 l0 37 -110
-3 -110 -3 0 265 0 266 -95 0 -95 0 0 -545 0 -545 -100 0 -100 0 0 460 0 460
-115 0 -115 0 0 -700 0 -700 -35 0 c-34 0 -35 1 -35 40 l0 40 -50 0 -50 0 0
95 0 95 -50 0 -50 0 0 35 c0 19 -4 35 -10 35 -6 0 -10 110 -10 310 l0 310
-165 0 -165 0 0 -285 0 -285 -35 0 -35 0 0 285 0 285 -145 0 -145 0 0 -235 0
-235 -45 0 -45 0 0 -96 c0 -92 -1 -96 -20 -91 -30 8 -50 -19 -50 -64 0 -33 -4
-41 -25 -49 l-25 -10 0 -210 0 -210 -40 0 -40 0 0 669 c0 582 -2 670 -15 681
-11 9 -15 33 -15 89 0 70 -2 79 -25 99 -25 22 -25 23 -25 190 l0 168 -40 39
c-36 35 -40 44 -40 88 0 26 -4 56 -9 66 -6 10 -13 63 -17 118 -6 89 -9 102
-26 107 -17 4 -19 12 -16 60 1 31 0 56 -4 56 -5 0 -8 18 -8 39 0 22 -5 43 -10
46 -6 3 -10 24 -10 46 0 42 -14 79 -30 79 -6 0 -10 -22 -10 -49 0 -27 -9 -68
-20 -92 -11 -24 -20 -62 -20 -85 0 -30 -6 -47 -25 -64 -21 -19 -25 -33 -25
-77 0 -40 -4 -53 -15 -53 -12 0 -15 -13 -15 -59 0 -33 -4 -63 -10 -66 -6 -3
-10 -28 -10 -55 0 -27 -5 -52 -10 -55 -6 -3 -10 -28 -10 -55 0 -27 -4 -52 -10
-55 -6 -4 -10 -70 -10 -166 0 -152 -1 -159 -20 -159 -17 0 -20 -7 -20 -40 0
-38 -2 -40 -30 -40 l-30 0 0 -705 0 -705 -35 0 c-34 0 -35 1 -35 40 0 33 -3
40 -20 40 -20 0 -20 7 -20 345 l0 345 -295 0 -295 0 0 -440 0 -440 -45 0 -45
0 0 -63 c0 -51 -3 -64 -20 -75 -20 -12 -20 -10 -20 208 l0 220 -80 0 -80 0 0
-230 0 -230 -45 0 -45 0 0 285 0 285 -195 0 -195 0 0 -390 0 -391 -57 3 -58 3
-3 198 -2 197 -188 0 -187 0 0 -517 0 -516 3005 6 c1653 4 4896 7 7208 7
l4202 0 0 138 c0 147 -6 175 -54 256 -56 95 -165 192 -277 245 -25 11 -57 33
-70 47 -13 14 -45 37 -70 49 -56 29 -200 59 -240 51 l-29 -5 0 60 c0 60 -1 61
-25 57 -19 -4 -26 0 -33 22 -6 14 -22 39 -36 55 l-26 28 2 429 3 428 -152 0
-153 0 0 -320 c0 -207 -4 -320 -10 -320 -6 0 -10 -53 -10 -140 l0 -140 -55 0
-55 0 0 1240 0 1240 -190 0 -190 0 0 -1000 0 -999 -37 -7 c-21 -4 -46 -11 -55
-16 -17 -8 -18 38 -18 899 l0 908 -144 144 -144 144 -99 -79 c-54 -44 -131
-106 -170 -139 l-73 -59 0 -782 0 -782 -57 -4 c-32 -3 -65 -7 -73 -9 -13 -4
-15 165 -18 1469 l-2 1472 -95 0 c-52 0 -95 4 -95 9 0 5 -3 16 -6 25 -5 14 5
16 76 16 89 0 120 10 120 40 0 30 -31 40 -119 40 l-81 0 -1 98 c-1 53 -5 246
-8 427 l-6 330 -7 -185z"/>
</g>
</svg>
